<?xml version="1.0" encoding="utf-8"?>
<svg viewBox="7.496 -138.695 755.192 529.67" xmlns="http://www.w3.org/2000/svg">
  <circle cx="677.254" cy="-80.457" r="40.421" fill="#ff6584" style=""/>
  <path d="M 525.767 26.031 L 494.097 -36.152 L 525.863 18.267 L 526.151 -3.991 L 504.388 -48.942 L 526.232 -9.876 L 526.75 -49.904 L 503.09 -85.879 L 526.828 -56.199 L 528.557 -129.267 L 528.565 -129.571 L 528.566 -129.262 L 528.293 -36.551 L 554.413 -74.081 L 528.368 -28.69 L 529.399 16.06 L 529.506 14.877 L 559.625 -24.715 L 529.47 19.066 L 529.601 24.663 L 529.652 24.751 L 529.614 25.208 L 530.98 84.438 C 529.009 84.52 527.018 84.553 525.008 84.538 L 525.065 79.93 L 497.586 34.577 L 525.121 75.525 L 525.767 26.031 Z" fill="#3f3d56" style=""/>
  <path d="M 378.212 61.56 L 346.543 -0.623 L 378.309 53.795 L 378.597 31.538 L 356.834 -13.413 L 378.678 25.653 L 379.196 -14.375 L 355.536 -50.35 L 379.274 -20.67 L 381.002 -93.738 L 381.011 -94.042 L 381.012 -93.733 L 380.739 -1.023 L 406.859 -38.553 L 380.813 6.839 L 381.845 51.589 L 381.952 50.406 L 412.071 10.813 L 381.916 54.595 L 382.047 60.192 L 382.097 60.28 L 382.06 60.737 L 383.426 119.966 C 381.455 120.049 379.464 120.082 377.454 120.067 L 377.511 115.459 L 350.032 70.105 L 377.567 111.054 L 378.212 61.56 Z" fill="#cbcbcb" style=""/>
  <path d="M 652.754 16.33 L 621.084 -45.853 L 652.851 8.565 L 653.139 -13.693 L 631.376 -58.643 L 653.219 -19.577 L 653.737 -59.605 L 630.077 -95.581 L 653.815 -65.9 L 655.544 -138.969 L 655.553 -139.272 L 655.553 -138.964 L 655.281 -46.253 L 681.401 -83.783 L 655.355 -38.391 L 656.387 6.359 L 656.493 5.176 L 686.613 -34.417 L 656.458 9.365 L 656.589 14.962 L 656.639 15.05 L 656.602 15.507 L 657.967 74.736 C 655.996 74.819 654.005 74.852 651.995 74.837 L 652.053 70.229 L 624.573 24.875 L 652.109 65.824 L 652.754 16.33 Z" fill="#3f3d56" style=""/>
  <path d="M 107.572 230.01 C 126.019 216.412 145.365 204.076 165.476 193.087 C 221.725 162.048 290.897 135.508 369.537 114.949 C 374.941 113.531 380.391 112.146 385.885 110.792 C 397.553 107.904 409.415 105.155 421.47 102.543 C 424.448 101.901 427.434 101.261 430.428 100.624 C 447.206 97.096 464.318 93.84 481.764 90.854 C 482.114 90.79 482.465 90.734 482.823 90.678 C 486.919 89.97 491.033 89.285 495.165 88.624 C 577.739 75.207 667.224 67.825 760.714 67.714 C 761.487 67.706 762.267 67.706 763.04 67.706 L 763.04 390.993 L 7.376 390.993 C 7.376 332.379 43.83 277.412 107.572 230.01 Z" fill="#f1f1f1" style=""/>
  <path d="M 257.717 266.886 C 289.918 242.942 331.149 221.498 379.427 203.415 C 384.786 201.4 390.232 199.433 395.767 197.514 C 396.539 197.244 397.319 196.973 398.1 196.702 C 405.147 194.281 412.329 191.924 419.647 189.631 C 432.013 185.767 444.729 182.114 457.796 178.674 C 467.15 176.203 476.668 173.849 486.351 171.611 C 489.461 170.884 492.585 170.178 495.723 169.493 C 502.855 167.906 510.072 166.388 517.373 164.939 C 592.024 150.064 675.266 141.759 763.04 141.759 L 763.04 390.993 L 180.47 390.993 C 180.47 345.804 208.579 303.427 257.717 266.886 Z" fill="#6c63ff" style=""/>
  <path d="M 242.444 378.061 L 243.885 378.746 C 248.778 368.615 254.753 359.044 261.706 350.2 L 260.448 349.22 C 253.426 358.158 247.39 367.828 242.444 378.061 Z M 283.46 324.217 L 284.551 325.38 C 292.364 318.114 300.579 311.293 309.156 304.947 C 309.634 304.589 310.119 304.231 310.605 303.872 L 309.658 302.59 C 309.172 302.949 308.686 303.307 308.2 303.673 C 299.578 310.056 291.318 316.914 283.46 324.217 Z M 337.949 283.79 L 338.769 285.152 C 348.054 279.546 358.015 274.036 368.367 268.773 L 367.642 267.347 C 357.259 272.635 347.266 278.169 337.949 283.79 Z M 398.362 252.911 L 398.992 254.368 C 409.048 249.997 419.615 245.729 430.381 241.692 L 429.823 240.202 C 419.026 244.248 408.443 248.523 398.362 252.911 L 398.362 252.911 Z M 461.857 229.015 L 462.343 230.528 C 465.162 229.612 467.989 228.712 470.847 227.813 C 478.635 225.384 486.677 222.995 494.759 220.734 L 494.329 219.197 C 486.231 221.466 478.173 223.855 470.369 226.3 C 467.513 227.194 464.676 228.099 461.857 229.015 L 461.857 229.015 Z M 537.129 208.264 C 533.793 209.028 530.432 209.825 527.152 210.621 L 527.526 212.166 C 530.807 211.377 534.159 210.581 537.495 209.809 C 540.656 209.076 543.802 208.36 546.851 207.699 C 551.398 206.687 556.017 205.692 560.571 204.752 L 560.253 203.192 C 555.682 204.139 551.064 205.127 546.509 206.138 C 543.459 206.807 540.298 207.523 537.129 208.264 L 537.129 208.264 Z M 593.569 196.837 L 593.847 198.406 C 604.812 196.487 616.071 194.688 627.299 193.063 L 627.068 191.487 C 615.825 193.119 604.557 194.918 593.569 196.837 L 593.569 196.837 Z M 660.711 187.099 L 660.894 188.684 C 671.994 187.394 683.333 186.231 694.6 185.22 L 694.457 183.635 C 683.181 184.646 671.826 185.809 660.71 187.099 L 660.711 187.099 Z M 728.29 181.063 L 728.386 182.656 C 739.565 181.947 750.952 181.374 762.227 180.952 L 762.172 179.359 C 750.872 179.789 739.478 180.362 728.29 181.063 L 728.29 181.063 Z" fill="#fff" style=""/>
  <path d="M 409.478 304.159 C 479.837 251.836 611.827 216.609 763.04 216.609 L 763.04 390.993 L 355.427 390.993 C 355.427 359.381 375.095 329.727 409.478 304.159 Z" fill="#f1f1f1" style=""/>
  <path d="M 107.571 230.01 L 257.717 266.886 L 409.478 304.159 L 763.04 390.993 L 7.376 390.993 C 7.376 332.379 43.83 277.412 107.571 230.01 Z" opacity="0.2" style="isolation: isolate;"/>
</svg>