<svg xmlns="http://www.w3.org/2000/svg" width="204.242" height="43" viewBox="0 0 204.242 43">
  <g id="Group_3" data-name="Group 3" transform="translate(-78 -26)">
    <text id="M_cars" data-name="M cars" transform="translate(78 62)" fill="#1c1d21" font-size="36" font-family="Tahoma-Bold, Tahoma" font-weight="700" letter-spacing="0.05em"><tspan x="0" y="0">M CARS</tspan></text>
    <path id="Icon_awesome-opencart" data-name="Icon awesome-opencart" d="M31.247,32.441a3.373,3.373,0,1,1-3.366-3.381,3.355,3.355,0,0,1,3.366,3.381ZM12.5,29.06a3.373,3.373,0,1,0,3.381,3.381A3.372,3.372,0,0,0,12.5,29.06ZM34.037,9.13C11.729,9.13,6.046,8.185,0,1.807,2.539,5.623,3.934,12.8,27.541,12.451c24.6-.369,9.6,6.356,5.226,13.944C46.549,14.09,56.344,9.13,34.037,9.13Z" transform="translate(235 29.193)"/>
  </g>
</svg>
