<?xml version="1.0" encoding="UTF-8"?>
<svg id="Layer_2" data-name="Layer 2" xmlns="http://www.w3.org/2000/svg" viewBox="0 0 953.62 201">
  <defs>
    <style>
      .cls-1 {
        fill: #2f2e41;
      }

      .cls-1, .cls-2, .cls-3, .cls-4 {
        stroke: #231f20;
        stroke-miterlimit: 10;
      }

      .cls-2 {
        fill: #3f3d56;
        stroke-width: 1.12px;
      }

      .cls-3 {
        fill: #f1f1f1;
      }

      .cls-4 {
        fill: #6c63ff;
      }
    </style>
  </defs>
  <polyline class="cls-2" points="156.69 154.57 56.08 154.57 .07 155.96 180.64 177.5 435.73 168.47 232.15 161.87"/>
  <g>
    <path class="cls-4" d="m113.29,6.29l-20.48,5.5s-16.2,8.56-19.26,11.31-14.68,12.84-14.68,12.84l-10.7,9.17-3.97,2.75s-6.73,3.67-9.48,3.06c-3.97,3.06-13.15,16.51-13.15,16.51l-1.53,16.2-2.45,4.89v12.84l2.14,7.95s.31,9.78,3.36,13.15c0,6.11.92,17.12,4.28,25.38,5.2,7.34,8.87,8.25,8.87,8.25l26.9,1.22,8.25-9.78,2.45-5.81,90.19,10.39s2.45,12.54,11.92,19.87h43.11l8.87-8.25v-6.11h108.54s5.2,6.73,8.25,8.56c6.11.31,33.02-.31,33.02-.31,0,0,11.03-6.42,11.01-11.01h9.48s5.5-40.97,1.53-51.36-12.84-22.01-12.84-22.01l-13.76-10.39s-55.64-16.51-56.56-16.51-.61-7.34-.61-7.34c0,0-5.81-3.67-8.87-3.67s-10.7-.31-10.7-.31l-35.46-25.07s-16.82-9.17-35.77-10.7c-12.84-1.22-43.11-3.67-43.11-3.67h-50.14l-18.65,2.45Z"/>
    <polygon class="cls-3" points="146.31 12.71 161.9 50.01 300.7 51.54 250.56 15.77 146.31 12.71"/>
    <path class="cls-3" d="m98.31,15.16s-29.96,13.45-35.46,23.24c0,3.97-1.53,13.15-1.53,13.15h26.29l10.7-36.38Z"/>
    <path class="cls-3" d="m92.5,51.54l9.48-36.38s16.2-4.89,29.96,0c3.36,3.36,14.98,17.43,9.78,23.85-10.39,0-21.1.92-21.1.92,0,0-8.56,3.06-7.95,6.73s1.83,8.87,11.31,9.48-31.49-4.59-31.49-4.59Z"/>
    <path class="cls-1" d="m37.16,52.76c-9.31,1.53,116.69,11.34,148.28,14.98-12.54,7.34-23.54,20.18-23.54,20.18,0,0,3.99-9.07-.61-9.78-10.67-1.65-140.29-17.46-132.99-13.45,4.19,2.31,3.36-10.09,8.87-11.92Z"/>
    <path class="cls-3" d="m388.12,83.13l-9.15,2.65s-3.97,1.53-2.45,14.68h16.2v-10.46"/>
    <path class="cls-3" d="m214.08,83.13s34.03-4.08,59.1,2.65c0,0,13.45,9.78,7.95,13.15s-44.33,1.53-44.33,1.53c0,0-16.09,1.43-22.72-17.32Z"/>
    <path class="cls-1" d="m294.28,85.48h71.85s7.64,12.54-2.45,19.26h-56.56s-13.76.61-12.84-19.26Z"/>
    <path class="cls-3" d="m248.27,127.97l140.48-1.83s11.31,6.97,0,13.57l-152.56,1.41s-1.83-9.48,12.08-13.15Z"/>
    <path class="cls-1" d="m182.38,93.43s-17.73-1.83-19.87,32.71c0,0-.31,37.91,14.68,39.75,14.98,1.83,19.57-19.57,19.57-19.57,0,0,1.83-22.93,0-30.57s-6.42-20.18-14.37-22.32Z"/>
    <path class="cls-1" d="m180.04,96.48s-12.94,8.35-12.03,33.22c0,0-2.24,21.81,12.03,31.9,0,0-18.14-8.56-15.69-35.46,0,0,1.73-30.88,15.69-29.66Z"/>
    <path class="cls-3" d="m185.6,100.46s-11.47-2.45-12.08,31.8c0,0-.9,20.18,12.08,27.21,0,0,11.46-11.49,9.32-33.32,0,0-.81-24.37-9.32-25.68Z"/>
    <path class="cls-1" d="m38.69,91.8s-13.15-.51-13.15,28.53c0,0-1.83,29.66,10.39,30.57,0,0,12.23,1.43,12.84-29.55,0,0-1.22-27.21-10.09-29.55Z"/>
    <path class="cls-3" d="m39.91,96.45s-11.01,2.39-10.09,24.91c0,0,1,27.64,7.29,26.19s9.15-19.42,9.53-26.19.92-19.74-6.73-24.91Z"/>
  </g>
</svg>