<svg width="2000" height="1333" viewBox="0 0 2000 1333" fill="none" xmlns="http://www.w3.org/2000/svg">
<path d="M1075.34 418.272C1091.69 409.376 1114.42 406.715 1131.12 406.244C1137.34 406.064 1143.37 404.041 1148.45 400.452C1153.52 396.849 1157.43 391.847 1159.68 386.027C1166.27 369.038 1177.84 345.578 1195.58 332.927C1225.41 311.656 1267.72 310.797 1290.26 312.058C1294.98 312.321 1299.69 311.656 1304.13 310.09C1308.58 308.511 1312.66 306.044 1316.15 302.871C1337.47 283.623 1365.23 273.078 1393.97 273.314C1471.94 273.314 1503.45 317.421 1515.2 342.779C1517.42 347.56 1520.73 351.731 1524.89 354.946C1529.05 358.174 1533.91 360.35 1539.08 361.32C1552.27 363.828 1572.13 370.521 1595.35 388.036C1612.88 401.242 1620.67 416.11 1624.08 428.291C1627.68 441.164 1638.6 450.656 1651.63 453.497C1658.49 455.007 1665.33 457.321 1670.67 461.173C1678.66 466.966 1683.3 475.931 1685.99 484.897C1685.99 484.924 1685.99 484.938 1685.99 484.966C1685.99 484.98 1685.98 484.994 1685.96 485.008C1685.95 485.021 1685.94 485.035 1685.92 485.049C1685.9 485.063 1685.88 485.063 1685.87 485.063H1036.9C1036.86 485.063 1036.83 485.049 1036.81 485.021C1036.79 484.994 1036.78 484.98 1036.78 484.938C1036.78 482.319 1036.67 439.307 1075.34 418.272Z" fill="#F9EDDA"/>
<path d="M1428.32 1029.05C1428.29 1029.05 1428.26 1029.05 1428.25 1029.06C1428.21 1029.06 1428.19 1029.09 1428.18 1029.1C1428.15 1029.12 1428.14 1029.13 1428.14 1029.15C1428.13 1029.19 1428.12 1029.2 1428.12 1029.21V1134.57C1435.52 1163.9 1435.03 1189.86 1428.12 1229.82V1251.56C1428.12 1251.59 1428.14 1251.65 1428.18 1251.68C1428.21 1251.69 1428.25 1251.72 1428.31 1251.72H1835.76C1835.8 1251.72 1835.83 1251.7 1835.85 1251.69C1835.88 1251.68 1835.91 1251.65 1835.92 1251.62C1835.95 1251.59 1835.95 1251.56 1835.95 1251.52C1835.95 1251.5 1835.92 1251.47 1835.88 1251.45C1826.74 1242.58 1801.47 1218.02 1774.26 1191.55C1747.6 1172.19 1722.45 1144.13 1704.78 1123.87C1693.67 1113.05 1686.6 1106.16 1686.6 1106.16C1679.51 1099.32 1670.62 1094.02 1660.72 1090.71C1650.79 1087.4 1640.1 1086.17 1629.52 1087.12C1619.26 1088.09 1608.86 1087.01 1599.15 1083.92C1589.46 1080.86 1580.69 1075.86 1573.6 1069.39L1554.57 1051.95C1542.97 1041.44 1527.3 1034.99 1510.56 1033.88L1428.32 1029.05Z" fill="#F9EDDA"/>
<path d="M1428.12 1134.57V1229.77C1439.67 1236.89 1453.48 1240.71 1467.67 1240.74H1707.48C1723.53 1240.78 1739.1 1235.86 1751.34 1226.86C1763.58 1217.88 1771.7 1205.39 1774.26 1191.69V1191.55C1748.98 1166.93 1722 1140.67 1704.78 1123.87L1704.5 1123.91L1695.55 1124.88L1653.02 1131.35C1641.56 1133.2 1629.73 1132.42 1618.71 1129.08L1566.88 1113.6C1555.51 1110.1 1543.28 1109.32 1531.44 1111.35L1454.61 1124.56C1445.09 1126.3 1436.07 1129.69 1428.12 1134.57Z" fill="#F9EDDA"/>
<path d="M1218.47 861.738C1211.97 859.965 1252.05 840.787 1113.14 802.985L1154.36 738.286C1156.27 735.113 1159.07 732.411 1162.49 730.429C1165.91 728.42 1169.85 727.187 1173.94 726.84C1178.05 726.48 1182.19 727.02 1186 728.406C1189.8 729.778 1193.17 731.94 1195.76 734.725L1268.3 811.313C1268.3 831.627 1233.4 857.179 1218.47 861.738Z" fill="#F9EDDA"/>
<path d="M1038.71 949.744C1035.87 954.206 1014.48 954.581 1009.43 956.576C1007.13 957.463 1004.69 958.073 1002.18 958.364C996.207 959.112 990.692 961.578 986.549 965.403C982.419 969.214 979.911 974.133 979.426 979.343C979.426 979.343 975.823 1013.53 971.223 1059.37C981.837 1113.33 974.77 1182.76 953.694 1232.03C953.015 1238.95 952.807 1245.48 952.225 1251.52C952.211 1251.56 952.225 1251.58 952.225 1251.59C952.239 1251.62 952.239 1251.65 952.266 1251.66C952.28 1251.68 952.294 1251.69 952.336 1251.69C952.35 1251.7 952.377 1251.7 952.405 1251.7H1512.56C1512.6 1251.7 1512.62 1251.7 1512.66 1251.69C1512.69 1251.69 1512.7 1251.68 1512.71 1251.66C1512.74 1251.62 1512.76 1251.61 1512.76 1251.59C1512.76 1251.56 1512.76 1251.55 1512.76 1251.51C1510.25 1239.84 1507.43 1226.94 1504.68 1214.04C1454.9 1173.77 1433.09 1153.08 1440.23 1066.82C1431.91 1042.61 1416.19 996.401 1404.09 960.955L1058.26 934.543L1038.71 949.744Z" fill="#E7CFAA"/>
<path d="M1200.27 941.624L1066.71 875.748L1113.13 802.985L1164.43 807.973L1212.97 829.271C1217.26 831.142 1222.2 831.613 1226.87 830.56L1241.25 827.345C1252.11 824.823 1261.66 819.17 1268.3 811.313L1310.04 855.17L1310.26 855.42C1355.38 914.229 1226.15 945.615 1200.27 941.624Z" fill="#F9EDDA"/>
<path d="M1036.5 1059.7L1048.81 1062.61C1066.79 1066.81 1085.67 1067.47 1104 1064.55L1237.15 1043.57C1251.58 1041.37 1266.32 1041.26 1280.8 1043.24L1440.23 1066.82L1445.67 1082.92C1446.92 1086.83 1449.34 1090.38 1452.68 1093.21C1454.17 1094.47 1455.81 1095.56 1457.59 1096.49L1471.76 1103.59C1473.8 1104.57 1475.67 1105.8 1477.29 1107.23C1481.01 1110.6 1483.5 1114.84 1484.44 1119.41C1484.44 1119.41 1494.61 1167.59 1504.67 1214.04C1490.65 1219.35 1475.52 1222.17 1460.19 1222.34C1327.58 1224.92 1084.07 1229.43 954.149 1232.03H953.691C958.541 1182.33 965.622 1112.94 971.22 1059.37L971.415 1059.33C992.796 1054.79 1015.16 1054.93 1036.5 1059.7Z" fill="white"/>
<path d="M1387.47 961.606L1325.92 957.075C1318.9 956.479 1311.81 957.019 1305.02 958.696L1221.1 978.706C1211.64 981.006 1201.62 981.228 1192.02 979.343L1110.34 962.895C1099.58 960.733 1088.35 961.176 1077.89 964.183L1067.83 967.093C1057.91 970.114 1047.21 970.752 1036.93 968.895C1026.63 967.024 1017.13 962.784 1009.42 956.59C1014.63 954.733 1018.86 951.227 1021.19 946.765L1066.33 875.748L1177.48 892.529C1180.31 892.958 1183.16 893.194 1186.04 893.277C1194.08 893.485 1202.09 892.238 1209.56 889.619L1310.04 855.17L1310.26 855.101L1312.13 857.041C1313.31 858.371 1314.68 859.577 1316.23 860.588L1378.52 901.896C1383.08 904.862 1386.36 909.06 1387.84 913.841L1390.14 920.603L1404.08 960.955C1398.58 961.648 1393.01 961.869 1387.47 961.606Z" fill="#F9EDDA"/>
<path d="M642.254 617.591L660.143 580.469C663.275 573.776 668.402 567.928 675.04 563.563C681.677 559.184 689.534 556.44 697.807 555.623L710.5 554.334C718.994 553.53 727.585 554.805 735.29 557.992C743.008 561.193 749.521 566.168 754.136 572.404L813.457 650.654L732.574 707.634L642.254 617.591Z" fill="#F9EDDA"/>
<path d="M601.598 701.163L642.254 617.592L716.098 656.641C725.382 661.588 735.872 664.622 746.736 665.509C757.6 666.41 768.561 665.135 778.76 661.795L813.458 650.654L829.102 671.149C833.218 676.761 838.885 681.403 845.606 684.604C852.313 687.819 859.865 689.509 867.542 689.551C876.078 689.62 884.419 691.741 891.667 695.676C898.928 699.597 904.748 705.196 908.558 711.819C912.674 718.595 916.762 726.009 920.503 732.785C916.388 733.395 735.401 808.458 735.401 808.458C735.401 808.458 601.598 814.735 601.598 701.163Z" fill="#F9EDDA"/>
<path d="M552.352 1251.55C552.352 1251.56 552.352 1251.59 552.379 1251.61C552.379 1251.62 552.393 1251.65 552.407 1251.66C552.435 1251.68 552.449 1251.69 552.476 1251.7C552.49 1251.7 552.532 1251.72 552.546 1251.72H1112.37C1112.4 1251.72 1112.42 1251.7 1112.44 1251.7C1112.48 1251.69 1112.49 1251.68 1112.51 1251.66C1112.54 1251.65 1112.54 1251.62 1112.55 1251.59C1112.55 1251.58 1112.55 1251.55 1112.55 1251.52C1110.3 1238.21 1107.84 1224.92 1105.19 1211.67C1083.96 1160.63 1073.58 1119.15 1073.22 1082.61C1061.24 1042.12 1047.39 1001.9 1031.71 961.925C1022.15 937.398 972.926 942.677 961.993 918.344L609.761 903.282C608.847 921.49 568.661 922.917 567.664 942.885C565.585 983.957 563.479 1030.89 561.386 1072.41C571.613 1119.41 571.419 1168.46 554.444 1210.52C553.585 1227.22 552.878 1241.2 552.352 1251.55Z" fill="#F9EDDA"/>
<path d="M684.755 915.753C684.755 915.753 589.723 888.441 572.125 850.583C574.744 796.056 576.601 758.933 576.601 758.933C576.92 753.737 578.181 748.61 580.342 743.76L601.225 701.163L618.019 716.974C636.158 733.921 659.23 746.309 684.824 752.905C710.418 759.487 737.592 760 763.477 754.416L782.876 750.203L920.504 732.785C932.809 753.764 944.38 774.91 955.563 796.195C955.216 796.208 684.755 915.753 684.755 915.753Z" fill="#F9EDDA"/>
<path d="M554.441 1210.52C560.067 1211.31 565.763 1211.7 571.472 1211.7H1102.74C1103.57 1211.7 1104.37 1211.7 1105.19 1211.67C1096.57 1168.37 1085.91 1125.34 1073.22 1082.61L980.226 1069.05C968.531 1067.29 956.572 1067.29 944.877 1069.05L832.192 1086.17C819.803 1087.82 807.207 1087.7 794.888 1085.85L669.621 1065.52C659.256 1063.88 648.683 1063.57 638.221 1064.55L561.384 1072.41C558.723 1124.99 556.257 1174.19 554.441 1210.52Z" fill="#F9EDDA"/>
<path d="M983.541 978.373L927.586 972.886C923.36 972.553 919.12 972.553 914.893 972.886L799.27 984.179C793.298 984.775 787.256 984.553 781.381 983.528L645.222 958.364C637.476 957.075 629.494 957.075 621.748 958.364C611.937 960.207 601.752 959.735 592.246 957.006C582.741 954.29 574.232 949.412 567.664 942.871C569.521 909.31 571.017 878.007 572.14 850.57C578.417 844.75 586.26 840.371 594.99 837.835C603.734 835.299 613.032 834.676 622.122 836.061L719.842 850.57C729.348 851.942 739.117 851.166 748.18 848.311L911.18 798.315C917.9 796.375 924.967 795.391 932.062 795.405L955.55 796.209C984.275 851.069 1009.68 906.303 1031.71 961.925C1025.93 967.939 1018.47 972.581 1010.05 975.449C1001.64 978.331 992.52 979.329 983.541 978.373Z" fill="white"/>
<path d="M361.219 612.104L229.175 577.877L215.36 539.48V450.601C215.332 447.829 216.344 445.113 218.214 442.868C220.085 440.624 222.718 438.947 225.739 438.074C237.975 434.568 251.236 434.817 263.291 438.794L288.262 447.192C296.437 450.005 303.698 454.425 309.532 460.107L340.863 491.396C346.447 496.952 353.473 501.276 361.385 503.992L450.139 534.976C457.026 537.484 463.262 541.115 468.514 545.688C470.288 548.334 467.433 559.461 466.685 559.78L361.219 612.104Z" fill="#F9EDDA"/>
<path d="M275.348 677.579L215.375 713.191V800.144C223.287 840.634 226.849 891.254 215.375 933.088V1021.65C215.375 1151.56 315.173 1183.51 315.173 1183.51C468.474 1183.51 526.16 1192.63 526.16 1192.63C530.387 1169.56 641.035 1166.58 636.088 1089.6C632.943 1040.95 628.245 986.368 622.231 931.91V931.897C610.605 894.649 608.194 853.868 606.919 814.098C602.291 783.626 597.247 754.804 591.912 728.919C591.274 725.815 590.263 722.794 588.933 719.884C586.397 714.314 567.621 709.173 562.729 704.724L275.348 677.579Z" fill="white"/>
<path d="M215.375 1021.65V1251.56C215.375 1251.59 215.389 1251.65 215.43 1251.68C215.472 1251.69 215.5 1251.72 215.555 1251.72H637.598C637.654 1251.72 637.695 1251.7 637.737 1251.68C637.765 1251.66 637.792 1251.61 637.792 1251.58C641.991 1228.4 641.021 1166.41 636.088 1089.6L551.242 1041.95C534.239 1032.42 513.966 1028.19 493.804 1030.02L420.708 1036.48C417.992 1036.7 415.263 1036.24 412.865 1035.17L354.305 1008.07C343.289 1002.96 331.15 999.921 318.679 999.145C306.222 998.369 293.709 999.865 281.958 1003.54L215.375 1021.65Z" fill="#F9EDDA"/>
<path d="M215.375 594.021V539.479L229.717 546.588L360.638 572.404L468.321 545.646C468.363 545.646 468.404 545.646 468.418 545.646C468.46 545.66 468.487 545.674 468.515 545.687C472.243 549.193 475.485 553.059 478.132 557.23L516.169 623.384C314.91 718.526 381.618 723.653 215.375 594.021Z" fill="white"/>
<path d="M215.375 800.255V933.199L365.128 900.289C386.232 895.591 408.223 894.566 429.799 897.282C451.374 899.998 472.118 906.386 490.811 916.099C513.232 927.656 538.937 933.587 565.043 933.199L622.12 931.91H622.231V931.896C617.797 891.739 612.642 851.664 606.919 814.098C606.891 814.098 606.85 814.126 606.808 814.126L535.957 808.001C535.957 808.001 427.415 795.086 416.219 795.086C405.784 795.086 294.997 806.061 279.713 807.668H276.346L215.375 800.255Z" fill="#D2B17C"/>
<path d="M474.39 715.034L397.581 734.406C373.276 740.476 347.543 740.919 322.975 735.695L215.375 713.108V594.021L346.462 633.07C348.278 633.61 350.162 633.832 352.075 633.721L516.169 623.384L546.378 675.999C549.385 681.292 553.57 686.004 558.683 689.87L574.743 702.466C580.84 707.33 585.69 713.26 588.919 719.884L478.88 714.715C477.384 714.508 475.832 714.618 474.39 715.034Z" fill="#F9EDDA"/>
<path d="M1038.89 251.184C1086.07 251.184 1124.33 212.925 1124.33 165.742C1124.33 118.545 1086.07 80.2993 1038.89 80.2993C991.695 80.2993 953.449 118.545 953.449 165.742C953.449 212.925 991.695 251.184 1038.89 251.184Z" fill="#40F2C5"/>
<path d="M310.346 265.596C310.346 273.092 313.325 280.284 318.619 285.591C323.926 290.885 331.118 293.864 338.614 293.864H349.159C352.485 293.864 355.811 294.515 358.887 295.804C361.977 297.079 364.776 298.949 367.146 301.319C369.502 303.675 371.386 306.474 372.661 309.564C373.936 312.654 374.601 315.966 374.601 319.305C374.601 324.973 376.846 330.391 380.837 334.396C384.841 338.4 390.273 340.631 395.927 340.631H414.44C426.218 340.631 435.766 338.4 435.766 350.193V353.491C435.766 362.29 445.535 383.297 475.355 383.297H505.148C513.462 383.311 521.638 381.274 528.982 377.394C536.326 373.5 542.603 367.874 547.259 360.987C547.828 360.156 548.382 359.297 548.895 358.424C553.578 350.553 556.045 341.574 556.031 332.414C556.031 329.047 556.71 325.693 557.999 322.589C559.287 319.472 561.186 316.631 563.569 314.234C565.953 311.85 568.779 309.966 571.897 308.677C575.015 307.374 578.368 306.723 581.736 306.723H676.06C688.116 306.723 699.701 301.915 708.223 293.393C716.745 284.871 721.553 273.286 721.553 261.231C721.553 249.161 716.745 237.604 708.223 229.068C699.701 220.533 688.116 215.738 676.06 215.738H605.126C601.246 215.738 597.519 214.2 594.775 211.442C592.018 208.712 590.479 204.971 590.479 201.091C590.479 197.197 588.941 193.484 586.184 190.726C583.44 187.996 579.713 186.444 575.833 186.444H392.851C386.088 186.444 379.631 189.119 374.85 193.899C370.084 198.666 367.395 205.137 367.395 211.886C367.395 215.225 366.744 218.537 365.469 221.627C364.194 224.703 362.324 227.516 359.954 229.886C357.598 232.242 354.785 234.112 351.695 235.387C348.605 236.662 345.293 237.327 341.954 237.313H338.614C334.887 237.313 331.215 238.048 327.792 239.475C324.355 240.888 321.237 242.981 318.619 245.6C316 248.219 313.907 251.337 312.494 254.773C311.066 258.196 310.332 261.882 310.332 265.596H310.346Z" fill="#49223A"/>
<path d="M414.109 256.99C414.109 256.117 414.137 255.244 414.193 254.399C414.858 245.018 419.043 236.246 425.916 229.817C432.803 223.415 441.851 219.84 451.246 219.84H465.089C473.958 219.84 482.466 216.334 488.729 210.07C495.007 203.807 498.526 195.299 498.54 186.444V186.416C498.54 178.989 501.478 171.853 506.744 166.601C511.995 161.349 519.132 158.384 526.559 158.384H550.878C566.343 158.384 578.897 161.321 578.897 145.843V141.506C578.897 129.935 591.729 102.332 630.903 102.332H670.062C687.799 102.332 704.802 109.385 717.343 121.926C729.883 134.466 736.923 151.469 736.923 169.206C736.923 178.144 740.484 186.749 746.817 193.068C753.149 199.414 761.741 202.962 770.692 202.962H894.616C910.468 202.962 925.669 209.267 936.879 220.477C948.09 231.673 954.395 246.888 954.395 262.741C954.395 278.58 948.09 293.781 936.879 304.991C925.669 316.201 910.468 322.506 894.616 322.506H801.427C796.328 322.506 791.422 324.529 787.806 328.132C784.203 331.749 782.18 336.654 782.18 341.754C782.18 344.276 781.681 346.784 780.711 349.112C779.741 351.454 778.327 353.574 776.54 355.361C774.752 357.149 772.632 358.562 770.29 359.532C767.962 360.502 765.454 361.001 762.932 360.987H522.499C518.106 361.001 513.755 360.142 509.709 358.465C505.649 356.789 501.949 354.322 498.845 351.218C495.741 348.114 493.288 344.414 491.598 340.354C489.935 336.308 489.076 331.957 489.076 327.564C489.076 323.185 488.203 318.834 486.526 314.774C484.849 310.714 482.383 307.028 479.279 303.924C476.175 300.82 472.503 298.353 468.443 296.677C464.383 295 460.032 294.127 455.639 294.141H451.246C446.382 294.141 441.546 293.185 437.043 291.3C432.525 289.443 428.438 286.7 424.987 283.249C421.537 279.799 418.807 275.711 416.922 271.208C415.066 266.704 414.109 261.868 414.109 256.99Z" fill="#66AB9A"/>
<path d="M1672.81 1245.31C1674.77 1233.54 1672.01 1221.45 1665.14 1211.7L1644.78 1183.39C1644.48 1182.96 1644.09 1182.64 1643.62 1182.43C1643.15 1182.22 1642.63 1182.14 1642.13 1182.2L1614.12 1184.55C1612.63 1184.55 1611.75 1185.73 1611.46 1187.21L1610.28 1195.76C1609.6 1200.76 1607.24 1205.38 1603.61 1208.87C1599.95 1212.33 1595.24 1214.48 1590.21 1214.94C1577.84 1216.12 1562.78 1217.89 1558.95 1219.67C1545.39 1226.15 1542.43 1242.96 1542.43 1252.7H1664.85C1666.77 1252.44 1668.57 1251.59 1669.99 1250.26C1671.41 1248.95 1672.4 1247.21 1672.81 1245.31Z" fill="#40F2C5"/>
<path d="M1387.86 802.264L1565.14 1155.34C1567.68 1160.5 1571.96 1164.57 1577.23 1166.84L1582.84 1169.21C1588.42 1171.55 1592.88 1176 1595.23 1181.59L1602 1196.05C1602.57 1197.18 1603.46 1198.09 1604.58 1198.69C1605.69 1199.27 1606.96 1199.48 1608.2 1199.3L1650.68 1191.33C1652.12 1191.04 1653.38 1190.21 1654.2 1188.99C1655.05 1187.77 1655.37 1186.28 1655.1 1184.84L1651.57 1164.78C1650.93 1161.36 1651.01 1157.84 1651.86 1154.47L1656.88 1133.52C1658.16 1128.2 1657.64 1122.58 1655.39 1117.58L1485.69 721.034C1484.29 717.792 1482.14 714.951 1479.4 712.734C1476.64 710.531 1473.4 709.034 1469.93 708.383C1466.47 707.718 1462.89 707.925 1459.52 708.965C1456.16 710.004 1453.09 711.875 1450.61 714.383L1392.57 773.067C1388.88 776.864 1386.47 781.7 1385.61 786.924C1384.77 792.148 1385.56 797.497 1387.86 802.264Z" fill="#533848"/>
<path d="M1527.08 263.351L1517.06 289.305L1426.5 251.836C1424.81 251.115 1423.3 250.076 1422.03 248.745C1420.77 247.443 1419.77 245.891 1419.11 244.187C1418.45 242.468 1418.14 240.653 1418.2 238.838C1418.25 237.009 1418.68 235.207 1419.44 233.558L1422.38 227.059C1423.1 225.383 1424.14 223.858 1425.47 222.597C1426.77 221.322 1428.32 220.339 1430.02 219.673C1431.73 219.008 1433.54 218.703 1435.36 218.745C1437.2 218.814 1438.99 219.216 1440.67 219.978L1458.28 228.833L1465.54 234.639L1473.54 236.482L1527.08 263.351Z" fill="#142F28"/>
<path d="M1257.78 1076.88L1274.88 1128.8C1275.67 1131.19 1275.86 1133.71 1275.47 1136.18C1274.91 1140.02 1273.01 1143.52 1270.07 1146.07C1267.15 1148.61 1263.4 1150.02 1259.54 1150.03H1137.12L1137.71 1143.26C1138.33 1135.19 1141.63 1127.54 1147.07 1121.57C1152.53 1115.59 1159.82 1111.58 1167.8 1110.22L1189.03 1106.69C1191.29 1106.3 1193.47 1105.61 1195.53 1104.61L1201.42 1101.37C1204.44 1099.79 1207.05 1097.49 1208.93 1094.63C1210.84 1091.81 1212.02 1088.55 1212.34 1085.14L1213.81 1070.99L1231.31 1063.65L1257.78 1076.88Z" fill="#40F2C5"/>
<path d="M1456.89 499.031L1366.91 540.325C1360.55 543.276 1353.58 544.704 1346.56 544.496C1339.55 544.288 1332.68 542.459 1326.5 539.147C1315.98 533.618 1308.03 524.237 1304.29 512.957C1300.54 501.691 1301.32 489.386 1306.43 478.675C1330.03 407.879 1364.55 340.631 1403.49 275.434L1427.07 271.873L1456.28 284.885L1386.68 447.718C1416.76 430.896 1449.51 418.508 1482.83 405.815C1493.75 401.685 1514.69 396.378 1519.42 398.152L1527.2 406.023C1536.02 420.032 1518.52 431.492 1507.31 443.866L1456.89 499.031Z" fill="#6E194C"/>
<path d="M1564.24 248.884C1537.69 242.399 1523.25 263.351 1507.91 299.033C1494.65 330.308 1485.49 356.553 1531.8 361.86L1520.61 394.313L1564.55 414.947L1591.72 335.823C1591.72 335.823 1596.4 323.213 1597 321.148C1605.54 287.822 1590.79 255.383 1564.24 248.884Z" fill="#FBC3A5"/>
<path d="M1482.25 645.333L1480.2 734.42C1479.77 754.721 1471.42 774.065 1456.91 788.282C1442.41 802.5 1422.92 810.495 1402.6 810.537H1263.09C1260.25 810.551 1257.44 811.174 1254.87 812.366C1252.31 813.558 1250.02 815.304 1248.17 817.438C1246.32 819.599 1244.95 822.121 1244.18 824.851C1243.39 827.581 1243.19 830.435 1243.62 833.235L1274.3 1041.49C1274.77 1044.48 1274.56 1047.55 1273.69 1050.47C1272.83 1053.37 1271.32 1056.06 1269.28 1058.3C1265.95 1062.21 1264.13 1067.18 1264.16 1072.31C1264.16 1073.04 1264.19 1073.79 1264.27 1074.53C1264.28 1074.72 1264.3 1074.9 1264.3 1075.11C1264.32 1075.95 1264.19 1076.79 1263.89 1077.58C1263.59 1078.35 1263.15 1079.07 1262.56 1079.7C1261.98 1080.29 1261.29 1080.78 1260.51 1081.11C1259.75 1081.44 1258.91 1081.61 1258.07 1081.61H1211.76C1210.5 1081.61 1209.28 1081.25 1208.23 1080.55C1207.18 1079.88 1206.36 1078.92 1205.86 1077.77L1202.91 1070.99C1201.4 1067.28 1198.84 1064.09 1195.54 1061.85L1194.65 1061.25C1190.41 1058.2 1187.47 1053.69 1186.39 1048.57L1132.42 810.537C1128.01 792.356 1130.94 773.178 1140.54 757.132C1150.13 741.085 1165.63 729.432 1183.73 724.693L1482.25 645.333Z" fill="#603B51"/>
<path d="M1391.7 654.479C1396.12 653.01 1425.31 527.937 1439.18 478.661C1443.02 465.4 1447.15 432.961 1464.25 422.041L1516.17 388.701L1568.1 413.783L1586.1 451.543L1480.19 701.967L1391.7 654.479Z" fill="#8B3C6C"/>
<path d="M1534.17 257.725C1523.83 255.965 1521.48 266.593 1515.29 282.82C1525.01 304.34 1568.09 307.887 1568.09 307.887L1569.85 315.55C1571.67 314.94 1573.55 314.649 1575.47 314.663C1583.42 314.663 1584.02 319.097 1584.02 322.922C1584.03 325.846 1583.17 328.7 1581.54 331.125C1579.91 333.55 1577.59 335.421 1574.87 336.488L1581.66 364.812C1581.66 364.812 1606.44 345.343 1606.44 318.197C1606.44 275.143 1553.64 260.981 1534.17 257.725Z" fill="#ED734F"/>
<path d="M1570.16 422.914C1568.49 422.942 1566.87 422.554 1565.43 421.75L1514.4 397.556C1513.12 396.932 1511.96 396.087 1511 395.02C1510.05 393.953 1509.3 392.706 1508.83 391.362C1508.37 390.032 1508.16 388.59 1508.24 387.163C1508.31 385.75 1508.69 384.35 1509.3 383.061C1509.94 381.787 1510.79 380.623 1511.88 379.68C1512.94 378.738 1514.19 378.018 1515.53 377.546C1516.89 377.089 1518.3 376.895 1519.75 376.992C1521.17 377.075 1522.56 377.449 1523.83 378.087L1574.87 402.281C1576.16 402.891 1577.29 403.764 1578.24 404.817C1579.19 405.87 1579.91 407.117 1580.38 408.448C1580.86 409.806 1581.04 411.233 1580.97 412.646C1580.88 414.06 1580.51 415.445 1579.89 416.734C1578.96 418.535 1577.58 420.06 1575.87 421.141C1574.15 422.249 1572.18 422.845 1570.16 422.914Z" fill="#650E42"/>
<path d="M1475.65 759.03C1470.23 774.093 1460.33 787.118 1447.26 796.333C1434.19 805.548 1418.59 810.495 1402.6 810.537H1378.02C1383.85 776.767 1411.42 751.298 1444.94 751.298C1455.66 751.326 1466.2 753.973 1475.65 759.03Z" fill="#482E3E"/>
<path d="M1473.53 236.482C1470.69 245.766 1466.35 254.551 1460.71 262.45L1444.79 256.852C1450.9 248.371 1455.46 238.893 1458.28 228.833L1473.53 236.482Z" fill="#25E4B4"/>
<path d="M1515.58 302.871L1512.33 309.065C1509.09 314.663 1502.91 317.324 1497.3 315.245L1440.5 293.213L1434.07 288.086L1422.22 286.118L1403.79 278.968C1396.11 275.434 1393.18 265.111 1397.31 256.561L1399.36 251.836C1403.5 242.981 1413.23 238.865 1420.9 242.69L1437.52 250.505L1445.21 256.367L1455.23 258.847L1511.17 285.162C1517.36 288.127 1519.43 296.081 1515.58 302.871Z" fill="#142F28"/>
<path d="M1461.59 227.059C1515.58 275.725 1588.15 317.615 1666.32 347.698C1667.19 348.017 1668.16 348.031 1669.05 347.712C1669.93 347.421 1670.68 346.839 1671.19 346.063C1671.71 345.273 1671.94 344.345 1671.86 343.403C1671.79 342.474 1671.39 341.601 1670.74 340.922L1612.04 282.82C1611.48 282.307 1611.11 281.628 1610.94 280.88C1610.78 280.145 1610.86 279.369 1611.16 278.677L1621.18 248.302C1621.45 247.429 1621.42 246.487 1621.1 245.641C1620.77 244.782 1620.19 244.076 1619.42 243.577L1568.1 214.38C1567.22 213.937 1566.24 213.77 1565.28 213.937C1564.34 214.103 1563.45 214.546 1562.78 215.253L1540.37 242.399C1539.8 242.995 1539.11 243.424 1538.32 243.632C1537.53 243.84 1536.71 243.826 1535.93 243.577L1465.15 220.269C1461.3 218.787 1458.06 224.108 1461.59 227.059Z" fill="#C18CAB"/>
<path d="M1570.45 428.526C1569.52 428.513 1568.64 428.291 1567.82 427.875C1567 427.473 1566.28 426.877 1565.73 426.157C1559.24 417.316 1547.73 413.187 1530.92 413.187C1517.34 413.187 1503.48 415.847 1490.22 418.217C1476.65 420.864 1462.49 423.219 1448.62 423.219C1410.28 423.219 1392.58 399.912 1392.58 384.281C1392.58 368.941 1400.84 351.537 1410.57 331.472C1417.66 316.437 1425.02 300.806 1429.75 284.871C1429.97 284.122 1430.31 283.416 1430.8 282.806C1431.28 282.182 1431.88 281.67 1432.57 281.282C1433.27 280.894 1434.01 280.658 1434.79 280.561C1435.57 280.464 1436.36 280.533 1437.12 280.741C1437.87 280.949 1438.57 281.323 1439.2 281.808C1439.81 282.293 1440.32 282.889 1440.72 283.582C1441.1 284.247 1441.33 285.009 1441.44 285.799C1441.53 286.575 1441.47 287.365 1441.25 288.113C1436.23 305.227 1428.28 322.049 1421.2 336.793C1412.63 355.084 1404.37 372.184 1404.37 384.572C1404.37 393.731 1417.66 411.704 1448.62 411.704C1461.3 411.704 1474.28 409.348 1487.85 406.688C1501.72 404.055 1516.17 401.394 1530.93 401.394C1551.87 401.394 1566.34 407.297 1575.18 419.381C1575.66 420.004 1576.01 420.697 1576.22 421.445C1576.42 422.194 1576.48 422.997 1576.37 423.773C1576.26 424.536 1575.99 425.284 1575.59 425.949C1575.18 426.614 1574.64 427.182 1574 427.64C1572.9 428.222 1571.68 428.526 1570.45 428.526Z" fill="#40F2C5"/>
<path d="M1455.23 258.847C1451.72 271.748 1446.81 283.693 1440.5 293.213L1422.22 286.118C1428.94 275.004 1434.08 263.018 1437.52 250.505L1455.23 258.847Z" fill="#37FBC9"/>
<path d="M1693.16 372.78C1684.11 368.706 1674.32 366.53 1664.4 366.35C1654.47 366.156 1644.61 367.971 1635.41 371.699C1626.21 375.412 1617.86 380.955 1610.86 387.995C1603.85 395.02 1598.33 403.39 1594.63 412.605L1468.98 720.258C1466.39 726.688 1466.36 733.88 1468.95 740.323C1471.53 746.739 1476.52 751.935 1482.83 754.762L1566.02 792.232C1569.29 793.687 1572.81 794.463 1576.4 794.518C1579.96 794.601 1583.51 793.95 1586.84 792.647C1590.16 791.331 1593.19 789.363 1595.74 786.855C1598.29 784.361 1600.33 781.368 1601.71 778.084L1731.21 468.947C1738.73 451.113 1738.97 431.062 1731.86 413.076C1724.74 395.089 1710.85 380.609 1693.16 372.78ZM1693.45 505.807L1595.52 454.203L1607.02 427.93L1712.33 474.837L1693.45 505.807Z" fill="#56DBBA"/>
<path d="M1663.96 498.144C1696.54 498.144 1722.95 471.733 1722.95 439.141C1722.95 406.563 1696.54 380.152 1663.96 380.152C1631.38 380.152 1604.96 406.563 1604.96 439.141C1604.96 471.733 1631.38 498.144 1663.96 498.144Z" fill="#49223A"/>
<path d="M1590.79 453.012C1583.13 426.157 1558.05 412.896 1532.98 412.896C1516.17 412.896 1499.06 418.799 1486.96 430.882C1484.91 432.961 1486.67 436.785 1489.62 435.898C1498.45 433.335 1507.57 431.935 1516.75 431.769C1548.63 431.769 1558.05 448.591 1558.05 477.497C1558.05 492.837 1554.81 507.581 1550.4 522.325C1564.85 499.904 1586.97 479.562 1590.79 453.012Z" fill="#650E42"/>
<path d="M1519.71 672.188L1509.73 655.366L1453.04 691.353L1480.48 701.967L1519.71 672.188Z" fill="#650E42"/>
<path d="M1707.32 516.726C1708.52 517.225 1709.6 517.96 1710.5 518.888C1711.42 519.816 1712.14 520.939 1712.61 522.131C1713.07 523.35 1713.29 524.639 1713.23 525.955C1713.19 527.258 1712.89 528.532 1712.33 529.71L1698.17 560.085C1697.12 562.33 1695.26 564.103 1692.96 565.032C1690.66 565.96 1688.1 565.988 1685.78 565.101C1684.59 564.602 1683.48 563.868 1682.58 562.939C1681.68 562.011 1680.96 560.902 1680.49 559.697C1680.02 558.478 1679.81 557.189 1679.86 555.872C1679.91 554.57 1680.21 553.295 1680.76 552.117L1694.93 521.743C1695.41 520.592 1696.12 519.553 1696.99 518.694C1697.88 517.821 1698.93 517.128 1700.08 516.657C1701.23 516.2 1702.45 515.964 1703.7 515.978C1704.95 515.992 1706.16 516.241 1707.32 516.726Z" fill="black"/>
<path d="M1550.98 648.576L1571.92 599.023C1572.75 597 1574 595.171 1575.56 593.647C1577.14 592.109 1579.01 590.945 1581.08 590.183L1598.47 583.088C1602.38 581.591 1605.54 578.626 1607.32 574.829L1611.15 566.861C1612.05 564.921 1613.35 563.161 1614.93 561.692C1616.51 560.224 1618.38 559.087 1620.42 558.353C1622.44 557.605 1624.6 557.286 1626.75 557.369C1628.91 557.48 1631.02 557.993 1632.97 558.907C1636.96 560.709 1640.08 564.02 1641.63 568.108C1643.17 572.21 1643.03 576.741 1641.23 580.732L1637.7 588.409C1636.48 591.069 1635.97 594.021 1636.23 596.959L1638.28 617.315C1638.6 619.712 1638.31 622.151 1637.41 624.396L1621.18 671.288C1620.39 673.56 1619.13 675.653 1617.45 677.385C1615.78 679.117 1613.74 680.461 1611.49 681.32C1609.25 682.193 1606.85 682.553 1604.44 682.415C1602.04 682.262 1599.7 681.597 1597.6 680.433C1597.6 680.433 1544.63 658.304 1550.98 648.576Z" fill="#40F2C5"/>
<path d="M1615.87 542.694L1612.61 551.826C1611.59 554.805 1611.73 558.062 1613.04 560.93C1614.37 563.785 1616.76 566.03 1619.69 567.166L1638.87 574.538C1641.73 575.688 1644.93 575.688 1647.8 574.524C1650.65 573.374 1652.94 571.171 1654.21 568.344L1657.75 560.681C1658.99 557.771 1659.09 554.501 1657.98 551.535C1656.89 548.57 1654.68 546.131 1651.86 544.745L1632.68 535.891C1631.14 535.198 1629.46 534.81 1627.76 534.768C1626.07 534.727 1624.38 535.031 1622.81 535.669C1621.23 536.306 1619.79 537.249 1618.61 538.468C1617.42 539.674 1616.48 541.101 1615.87 542.694Z" fill="#C18CAB"/>
<path d="M1646.85 670.415L1511.16 616.719L1468.98 720.258C1466.39 726.688 1466.36 733.88 1468.95 740.323C1471.53 746.739 1476.52 751.935 1482.83 754.762L1566.02 792.232C1569.29 793.687 1572.81 794.463 1576.4 794.518C1579.96 794.601 1583.51 793.95 1586.84 792.647C1590.16 791.331 1593.19 789.363 1595.74 786.855C1598.29 784.361 1600.33 781.368 1601.71 778.084L1646.85 670.415Z" fill="#439D86"/>
<path d="M1107.03 752.116L1148.18 705.306C1148.43 705.043 1148.75 704.863 1149.11 704.78C1149.47 704.711 1149.85 704.752 1150.16 704.919C1150.5 705.071 1150.77 705.348 1150.93 705.667C1151.09 705.985 1151.15 706.36 1151.08 706.72L1146.26 732.951L1112.64 756.855C1111.82 757.45 1110.81 757.741 1109.77 757.7C1108.76 757.644 1107.8 757.229 1107.03 756.564C1106.46 755.954 1106.14 755.164 1106.14 754.347C1106.14 753.501 1106.46 752.711 1107.03 752.116Z" fill="#D69776"/>
<path d="M1105.87 761.566L1144.86 708.092C1145.57 707.108 1146.54 706.346 1147.64 705.889C1148.74 705.431 1149.97 705.293 1151.16 705.501C1155.86 706.304 1163.16 708.009 1164.16 710.863C1167.1 719.219 1145.39 740.905 1145.39 740.905L1112.06 767.164C1111.2 767.843 1110.13 768.19 1109.05 768.134C1107.96 768.079 1106.93 767.635 1106.16 766.873C1105.55 766.139 1105.17 765.224 1105.12 764.254C1105.08 763.312 1105.33 762.356 1105.87 761.566Z" fill="#E5AA8B"/>
<path d="M1210.28 685.45L1162.49 696.369C1158.83 697.214 1155.32 698.725 1152.16 700.789C1146.57 704.558 1142.48 710.212 1140.66 716.711L1126.81 766.873C1126.61 767.511 1126.56 768.218 1126.64 768.897C1126.74 769.589 1126.97 770.227 1127.33 770.823C1127.69 771.405 1128.18 771.904 1128.75 772.305C1129.31 772.68 1129.95 772.943 1130.64 773.068C1131.56 773.22 1132.49 773.151 1133.37 772.832C1134.25 772.513 1135.05 771.987 1135.65 771.28L1161.91 736.18C1178.42 736.18 1197.31 727.921 1215.59 722.309L1210.28 685.45Z" fill="#FBC3A5"/>
<path d="M1559.53 491.354L1491.94 657.181L1490.51 660.673C1485.8 672.188 1478.27 682.359 1468.66 690.23C1459.01 698.129 1447.57 703.477 1435.34 705.805L1417.69 709.284L1273.41 737.663C1270.5 738.231 1267.49 738.189 1264.6 737.524C1261.7 736.873 1258.99 735.612 1256.6 733.838L1250.1 728.808C1247.94 727.131 1245.49 725.912 1242.86 725.191C1240.21 724.485 1237.47 724.305 1234.78 724.693L1212.65 727.353C1210.78 727.575 1208.88 727.02 1207.4 725.87C1205.9 724.706 1204.93 723.016 1204.68 721.145L1201.44 689.288C1201.3 687.597 1201.76 685.907 1202.71 684.507C1203.68 683.121 1205.11 682.096 1206.76 681.625L1226.52 677.191C1230.11 676.331 1233.42 674.544 1236.11 672.008C1238.8 669.486 1240.78 666.271 1241.85 662.738C1242.84 659.135 1244.8 655.865 1247.53 653.287C1250.2 650.751 1253.55 649.019 1257.19 648.285L1385.5 618.201C1393.26 616.428 1400.51 612.853 1406.66 607.781C1412.8 602.709 1417.68 596.279 1420.91 588.991L1478.72 457.432C1483.26 446.79 1491.83 438.379 1502.55 434.041C1513.29 429.676 1525.29 429.773 1535.97 434.249C1546.64 438.725 1555.13 447.247 1559.52 457.931C1563.94 468.642 1563.94 480.657 1559.53 491.354Z" fill="#8F3F70"/>
<path d="M1491.94 657.181L1490.51 660.673C1485.78 672.188 1478.27 682.359 1468.66 690.23C1459.01 698.129 1447.57 703.464 1435.35 705.805L1417.69 709.284C1418.79 677.62 1442.19 651.527 1470.75 651.527C1477.58 651.527 1485.49 654.119 1491.94 657.181Z" fill="#40F2C5"/>
<path d="M215.579 1252.35C215.552 1252.35 215.51 1252.35 215.482 1252.33C215.441 1252.33 215.413 1252.31 215.399 1252.28C215.371 1252.24 215.371 1252.22 215.344 1252.17C215.344 1252.15 215.344 1252.1 215.344 1252.08C229.395 1193.64 259.562 1111.46 323.359 1054.57C338.768 1040.8 355.785 1028.98 374.076 1019.35C414.247 998.258 458.16 1000.24 514.905 951.061C518.563 947.874 522.138 944.728 525.63 941.61C609.756 866.228 642.57 808.32 753.218 789.654C754.368 789.474 755.546 789.28 756.724 789.1C830.346 777.876 895.737 805.701 960.824 841.881C1025.43 877.771 1090.72 922.557 1142.05 944.576C1150.28 948.123 1158.12 951.13 1165.59 953.694C1172.52 956.077 1179.13 958.086 1185.47 959.749C1259.18 979.218 1306.97 954.65 1364.08 981.408C1426.11 1010.47 1437.57 1079.21 1485.59 1107.65C1494.07 1112.66 1503.33 1116.19 1512.96 1118.11C1517.31 1118.98 1521.71 1119.59 1526.12 1119.94C1532.66 1120.42 1539.48 1120.74 1546.5 1120.91C1611.59 1122.53 1695.79 1112.43 1754.29 1131.67C1768.52 1136.04 1781.73 1143.15 1793.16 1152.64C1802.46 1160.59 1809.84 1170.47 1814.86 1181.6C1825.2 1203.99 1832.32 1227.72 1835.95 1252.1C1835.95 1252.12 1835.95 1252.17 1835.95 1252.19C1835.92 1252.22 1835.92 1252.26 1835.89 1252.28C1835.88 1252.31 1835.85 1252.33 1835.81 1252.33C1835.78 1252.35 1835.76 1252.35 1835.71 1252.35H215.579Z" fill="#66AB9A"/>
<path d="M1780.61 1066.57C1780.63 1066.56 1780.68 1066.53 1780.69 1066.5C1780.7 1066.45 1780.69 1066.41 1780.68 1066.38L1776.98 1059.44C1776.96 1059.42 1776.95 1059.41 1776.93 1059.4C1776.92 1059.4 1776.91 1059.38 1776.89 1059.38C1776.86 1059.37 1776.84 1059.37 1776.82 1059.37C1776.81 1059.37 1776.78 1059.38 1776.77 1059.38C1758.05 1069.41 1735.61 1090.01 1722.77 1102.59C1722.74 1102.62 1722.71 1102.63 1722.68 1102.63C1722.66 1102.63 1722.63 1102.63 1722.6 1102.62C1722.56 1102.62 1722.55 1102.59 1722.53 1102.57C1722.5 1102.55 1722.5 1102.52 1722.5 1102.48V951.324C1722.5 951.283 1722.49 951.255 1722.46 951.227C1722.42 951.186 1722.39 951.172 1722.35 951.172H1708.38C1708.34 951.172 1708.31 951.186 1708.29 951.227C1708.24 951.255 1708.23 951.283 1708.23 951.324V1139.46C1708.23 1139.49 1708.22 1139.52 1708.2 1139.54C1708.19 1139.59 1708.16 1139.6 1708.15 1139.61C1708.11 1139.61 1708.08 1139.63 1708.05 1139.61C1708.02 1139.61 1708 1139.6 1707.97 1139.57L1666.34 1095.87C1666.33 1095.85 1666.31 1095.84 1666.3 1095.84C1666.27 1095.83 1666.24 1095.83 1666.23 1095.83C1666.2 1095.83 1666.19 1095.83 1666.17 1095.84C1666.16 1095.84 1666.15 1095.85 1666.13 1095.87L1660.44 1101.28C1660.41 1101.3 1660.4 1101.31 1660.4 1101.34C1660.38 1101.35 1660.38 1101.38 1660.38 1101.4C1660.38 1101.42 1660.4 1101.47 1660.44 1101.51L1708.19 1151.63C1708.22 1151.66 1708.23 1151.71 1708.23 1151.74V1252.04C1708.23 1252.08 1708.24 1252.12 1708.29 1252.15C1708.31 1252.17 1708.34 1252.19 1708.38 1252.19H1722.35C1722.39 1252.19 1722.42 1252.17 1722.46 1252.15C1722.49 1252.12 1722.5 1252.08 1722.5 1252.04V1114.45C1722.5 1114.42 1722.52 1114.38 1722.55 1114.35C1732.77 1104 1759.67 1077.81 1780.61 1066.57Z" fill="#101010"/>
<path d="M1611.34 1045.5C1609.36 1047.41 1610.89 1053.1 1610.91 1056.12C1611.05 1067.02 1611.62 1078.84 1613.39 1087.05C1615.81 1098.17 1627.04 1118.88 1644.39 1124.05C1661.76 1129.23 1674.34 1121.18 1677.29 1118.25C1677.61 1117.94 1679.4 1116.26 1679.73 1115.97C1682.82 1113.22 1691.67 1101.16 1687.61 1083.51C1683.57 1065.85 1663.61 1053.31 1652.68 1050.21C1644.6 1047.91 1632.84 1046.58 1621.99 1045.76C1618.95 1045.52 1613.38 1043.63 1611.34 1045.5Z" fill="#49223A"/>
<path d="M1843.67 1035.6C1842.56 1033.08 1837.52 1032.22 1835.02 1031.07C1826.02 1026.93 1816.18 1022.8 1809.01 1021.16C1799.31 1018.96 1779.68 1020.89 1771.42 1034.37C1768.61 1039.08 1766.89 1044.37 1766.4 1049.85C1765.92 1055.32 1766.65 1060.84 1768.58 1065.98C1768.76 1066.39 1769.73 1068.64 1769.89 1069.04C1772.29 1073.99 1775.77 1078.34 1780.08 1081.75C1784.38 1085.18 1789.39 1087.58 1794.75 1088.8C1810.2 1092.1 1825.16 1079.21 1830.23 1070.66C1833.98 1064.34 1837.79 1054.38 1841 1044.98C1841.88 1042.38 1844.74 1038.17 1843.67 1035.6Z" fill="#49223A"/>
<path d="M1800.43 1151.86C1802.04 1150.3 1800.71 1145.64 1800.64 1143.16C1800.39 1134.26 1799.78 1124.62 1798.23 1117.9C1796.14 1108.81 1786.69 1091.86 1772.46 1087.55C1758.25 1083.26 1748.07 1089.77 1745.71 1092.15C1745.45 1092.39 1744.04 1093.76 1743.76 1094C1741.28 1096.24 1734.2 1106.04 1737.73 1120.48C1741.26 1134.9 1757.68 1145.23 1766.65 1147.82C1773.27 1149.73 1782.88 1150.87 1791.76 1151.6C1794.23 1151.79 1798.8 1153.37 1800.43 1151.86Z" fill="#49223A"/>
<path d="M1629.54 1184.61C1630.76 1186.49 1635.57 1186.06 1638.02 1186.48C1646.8 1187.93 1656.39 1189.15 1663.28 1188.93C1672.61 1188.6 1691.05 1182.57 1697.99 1169.43C1704.93 1156.3 1700.46 1145.06 1698.59 1142.29C1698.39 1141.98 1697.33 1140.33 1697.15 1140.02C1695.41 1137.15 1687.16 1128.35 1672.31 1129.04C1657.46 1129.76 1644.18 1143.91 1639.93 1152.21C1636.8 1158.35 1633.85 1167.56 1631.44 1176.14C1630.77 1178.54 1628.36 1182.71 1629.54 1184.61Z" fill="#49223A"/>
<path d="M1709.37 917.859C1717.06 915.642 1718.44 897.115 1712.5 876.468C1706.56 855.835 1695.48 840.911 1687.79 843.128C1680.1 845.345 1678.72 863.872 1684.67 884.505C1690.61 905.152 1701.68 920.076 1709.37 917.859Z" fill="#76FEDC"/>
<path d="M1746.88 883.438C1752.13 862.611 1750.1 844.154 1742.34 842.186C1734.58 840.232 1724.04 855.544 1718.79 876.371C1713.55 897.198 1715.59 915.67 1723.35 917.624C1731.1 919.578 1741.64 904.279 1746.88 883.438Z" fill="#40F2C5"/>
<path d="M1770.09 909.85C1783.46 896.173 1789.64 880.584 1783.93 874.972C1778.21 869.387 1762.75 875.928 1749.37 889.591C1736.02 903.254 1729.82 918.871 1735.53 924.455C1741.27 930.054 1756.73 923.513 1770.09 909.85Z" fill="#76FEDC"/>
<path d="M1783.99 940.141C1804.69 934.432 1819.77 923.541 1817.63 915.836C1815.5 908.118 1797 906.497 1776.3 912.206C1755.58 917.901 1740.53 928.793 1742.64 936.511C1744.77 944.229 1763.27 945.851 1783.99 940.141Z" fill="#40F2C5"/>
<path d="M1817.94 970.391C1819.99 962.659 1804.82 951.934 1784.04 946.432C1763.26 940.931 1744.77 942.746 1742.72 950.493C1740.69 958.225 1755.86 968.95 1776.63 974.451C1797.39 979.953 1815.9 978.137 1817.94 970.391Z" fill="#76FEDC"/>
<path d="M1780.62 1007.57C1786.29 1001.9 1780.83 987.269 1768.44 974.853C1756.04 962.437 1741.41 956.95 1735.74 962.617C1730.08 968.257 1735.53 982.904 1747.93 995.32C1760.33 1007.74 1774.98 1013.22 1780.62 1007.57Z" fill="#40F2C5"/>
<path d="M1743.39 1044.8C1751.13 1042.77 1752.98 1024.27 1747.5 1003.5C1742.04 982.738 1731.36 967.523 1723.61 969.56C1715.88 971.597 1714.04 990.096 1719.48 1010.88C1724.96 1031.64 1735.66 1046.84 1743.39 1044.8Z" fill="#76FEDC"/>
<path d="M1714.78 1005.1C1719.63 987.56 1717.35 971.583 1709.63 969.463C1701.91 967.315 1691.72 979.814 1686.86 997.371C1681.98 1014.91 1684.3 1030.89 1692.02 1033.01C1699.73 1035.16 1709.93 1022.66 1714.78 1005.1Z" fill="#40F2C5"/>
<path d="M1679.87 999.879C1695.24 984.886 1703.19 968.091 1697.59 962.368C1692.02 956.645 1675.03 964.142 1659.64 979.149C1644.27 994.142 1636.32 1010.94 1641.91 1016.66C1647.48 1022.38 1664.47 1014.89 1679.87 999.879Z" fill="#76FEDC"/>
<path d="M1656.83 973.565C1677.52 968.382 1692.72 957.878 1690.78 950.119C1688.83 942.372 1670.47 940.28 1649.79 945.463C1629.09 950.645 1613.89 961.149 1615.83 968.909C1617.77 976.655 1636.13 978.747 1656.83 973.565Z" fill="#40F2C5"/>
<path d="M1691.03 936.151C1693.28 928.474 1678.34 917.402 1657.72 911.416C1637.09 905.43 1618.56 906.801 1616.33 914.492C1614.1 922.183 1629.01 933.254 1649.66 939.241C1670.28 945.227 1688.8 943.841 1691.03 936.151Z" fill="#76FEDC"/>
<path d="M1697.49 924.982C1702.82 919.896 1695.36 903.379 1680.79 888.08C1666.23 872.782 1650.1 864.51 1644.75 869.595C1639.42 874.695 1646.88 891.212 1661.45 906.51C1676 921.795 1692.14 930.081 1697.49 924.982Z" fill="#40F2C5"/>
<path d="M1716.79 983.084C1738.58 983.084 1756.24 965.417 1756.24 943.633C1756.24 921.836 1738.58 904.168 1716.79 904.168C1695.01 904.168 1677.33 921.836 1677.33 943.633C1677.33 965.417 1695.01 983.084 1716.79 983.084Z" fill="#8B3C6C"/>
<path d="M1716.79 963.366C1727.67 963.366 1736.51 954.525 1736.51 943.633C1736.51 932.742 1727.67 923.901 1716.79 923.901C1705.9 923.901 1697.07 932.742 1697.07 943.633C1697.07 954.525 1705.9 963.366 1716.79 963.366Z" fill="#282828"/>
<path d="M659.577 1080.53C717.721 1182.78 815.87 1271.92 857.191 1248.47C898.513 1225.03 867.266 1097.88 809.108 995.625C750.964 893.36 687.914 854.561 646.592 878.131C605.271 901.702 601.294 978.262 659.577 1080.53Z" fill="#40F2C5"/>
<path d="M420.098 1028.8C431.489 1028.33 439.29 1025.61 439.969 1021.23C440.745 1016.2 431.891 1010.37 418.242 1006C415.055 1005.01 412.38 1002.84 410.731 999.948C409.082 997.052 408.597 993.63 409.373 990.373C413.932 971.292 423.507 956.022 438.113 946.544C453.702 936.414 473.199 934.419 493.998 939.116C495.73 939.504 497.268 940.46 498.377 941.832C499.485 943.204 500.081 944.908 500.095 946.668C500.095 969.976 505.79 988.918 512.941 988.918C518.511 988.918 523.236 977.264 524.996 960.969C525.107 959.888 525.481 958.835 526.105 957.934C526.728 957.033 527.546 956.285 528.53 955.8C529.5 955.301 530.581 955.038 531.689 955.066C532.784 955.107 533.851 955.398 534.793 955.952C543.537 961.135 551.851 966.983 559.694 973.426C560.678 974.202 561.399 975.241 561.8 976.405C562.202 977.583 562.258 978.858 561.953 980.05C559.985 988.655 559.057 997.454 559.168 1006.28C559.168 1029.59 564.863 1048.53 572.013 1048.53C579.163 1048.53 584.858 1029.59 584.858 1006.28V1006.14C584.858 1005.41 585.094 1004.69 585.524 1004.09C585.939 1003.48 586.535 1003.02 587.228 1002.76C587.907 1002.51 588.669 1002.46 589.376 1002.64C590.096 1002.82 590.734 1003.2 591.219 1003.76C601.21 1014.98 610.286 1026.98 618.379 1039.65C622.134 1045.52 625.654 1051.43 628.91 1057.29C629.672 1058.65 630.102 1060.18 630.157 1061.74C630.213 1063.3 629.894 1064.85 629.243 1066.28C626.277 1072.74 624.185 1079.56 623.007 1086.55C619.64 1106.4 623.395 1123.69 631.487 1124.97C634.134 1125.38 636.933 1124.05 639.566 1121.39C645.026 1115.86 654.504 1118.74 656.25 1126.3C668.236 1177.86 659.839 1222.85 629.506 1242.45C602.221 1260.07 563.491 1252.84 525.121 1228.15C524.567 1227.79 524.137 1227.27 523.846 1226.66C523.569 1226.05 523.472 1225.39 523.541 1224.72C523.638 1224.06 523.901 1223.43 524.317 1222.91C524.733 1222.4 525.287 1222.01 525.925 1221.79C543.177 1215.92 554.622 1206.57 552.946 1198.62C550.909 1188.94 529.888 1185.15 506.054 1190.12C500.109 1191.29 494.303 1193.02 488.705 1195.29C488.095 1195.55 487.43 1195.62 486.792 1195.5C486.141 1195.37 485.559 1195.07 485.088 1194.6C474.321 1183.58 464.496 1171.69 455.697 1159.05C455.171 1158.31 454.866 1157.42 454.81 1156.51C454.755 1155.59 454.949 1154.68 455.378 1153.86C455.808 1153.05 456.445 1152.36 457.235 1151.9C458.025 1151.42 458.926 1151.18 459.84 1151.18C476.316 1151.42 498.335 1148.61 499.305 1136.76C500.095 1126.95 481.014 1117.53 456.653 1115.56C449.42 1114.92 442.117 1115.16 434.939 1116.22C433.678 1116.42 432.39 1116.2 431.267 1115.6C430.145 1115 429.258 1114.06 428.704 1112.91C425.073 1105.32 421.844 1097.53 419.032 1089.59C418.851 1089.06 418.796 1088.49 418.879 1087.93C418.962 1087.37 419.17 1086.83 419.489 1086.37C419.807 1085.9 420.237 1085.53 420.736 1085.27C421.235 1084.99 421.789 1084.85 422.343 1084.82C433.872 1084.89 461.489 1084.16 461.42 1074.89C461.379 1067.75 443.406 1060.73 420.098 1059.13H419.974C417.05 1058.94 414.279 1057.75 412.117 1055.78C409.941 1053.8 408.514 1051.15 408.043 1048.27C407.78 1046.54 407.516 1044.94 407.253 1043.24C407.045 1039.62 408.278 1036.06 410.69 1033.34C413.101 1030.64 416.482 1029.01 420.098 1028.8Z" fill="#49223A"/>
<path d="M775.797 1035.96C801.364 1053.84 813.281 1054.37 817.119 1047.35C820.957 1040.33 815.137 1028.54 789.571 1010.66C778.971 1003.29 767.871 996.692 756.328 990.928C754.721 990.055 753.363 988.794 752.365 987.283C751.367 985.745 750.772 983.999 750.633 982.184C748.513 964.031 747.321 945.892 746.919 927.74V927.476C746.795 918.331 755.538 912.372 762.287 916.876C767.719 920.465 773.275 923.901 778.583 926.95C805.465 942.04 817.646 940.862 821.235 932.908C824.81 924.968 818.311 913.314 791.428 898.196C779.386 891.517 766.79 885.85 753.806 881.249C750.494 880.058 748.374 876.344 748.776 872.381C750.675 850.376 754.43 828.579 760.028 807.211C761.497 801.516 767.317 799.133 771.557 802.32C775.922 805.756 780.426 808.943 784.929 811.978C810.759 829.341 822.953 829.078 826.916 821.512C830.893 813.973 825.198 801.779 799.23 784.555C793.146 780.453 786.384 776.49 779.76 772.776C775.922 770.656 774.592 765.363 776.587 760.984C803.345 703.242 845.457 670.927 891.684 667.865C913.342 666.313 934.904 671.953 953.015 683.898C955.398 685.366 956.188 688.803 954.996 691.588C949.634 704.129 944.95 716.96 940.959 730C930.885 763.243 932.756 776.753 939.504 779.262C946.253 781.797 955.135 772.111 965.195 738.868C967.856 730.388 970.239 721.131 972.221 711.986C973.288 707.482 978.179 705.75 980.964 709.062C992.355 722.711 1002.29 739.52 1010.51 759.654C1012.97 765.876 1012.93 772.818 1010.37 778.998C1006.13 789.46 1002.03 800.726 998.854 811.313C988.78 844.57 990.761 858.08 997.524 860.588C1004.01 863.11 1013.02 853.577 1023.09 820.32V820.195C1023.88 817.41 1027.32 817.41 1027.98 820.32C1033.15 846.676 1036.32 876.219 1036.99 909.074C1040.3 1070.4 983.75 1246.96 903.615 1252.12C842.685 1256.1 785.733 1159.66 760.43 1042.32C758.836 1034.9 765.987 1028.94 771.557 1032.91C773.012 1033.97 774.467 1034.9 775.797 1035.96Z" fill="#49223A"/>
<path d="M876.632 951.809C864.688 947.846 855.944 941.818 857.094 938.354C858.244 934.876 868.858 935.278 880.803 939.241C892.748 943.19 901.492 949.218 900.342 952.696C899.191 956.16 888.577 955.772 876.632 951.809Z" fill="#280B1D"/>
<path d="M881.399 1025.21C874.054 1022.77 869.135 1017.64 870.424 1013.75C871.713 1009.86 878.724 1008.69 886.082 1011.13C893.44 1013.57 898.36 1018.71 897.071 1022.59C895.782 1026.48 888.771 1027.65 881.399 1025.21Z" fill="#280B1D"/>
<path d="M868.444 1203.62C861.072 1201.18 856.167 1196.05 857.455 1192.16C858.744 1188.27 865.756 1187.1 873.114 1189.54C880.472 1191.98 885.391 1197.11 884.103 1201C882.814 1204.89 875.802 1206.06 868.444 1203.62Z" fill="#280B1D"/>
<path d="M878.102 1102.86C867.459 1102.03 859.09 1097.88 859.436 1093.57C859.755 1089.27 868.665 1086.46 879.321 1087.29C889.963 1088.12 898.319 1092.28 897.986 1096.59C897.654 1100.88 888.744 1103.71 878.102 1102.86Z" fill="#280B1D"/>
<path d="M872.168 1061.29C856.87 1058.7 845.036 1053.33 845.715 1049.29C846.394 1045.25 859.351 1044.07 874.649 1046.66C889.933 1049.25 901.781 1054.61 901.088 1058.66C900.409 1062.71 887.453 1063.88 872.168 1061.29Z" fill="#280B1D"/>
<path d="M867.025 1158.65C853.168 1151.7 843.427 1143.08 845.256 1139.43C847.099 1135.76 859.82 1138.45 873.677 1145.41C887.548 1152.36 897.289 1160.98 895.446 1164.64C893.603 1168.3 880.882 1165.62 867.025 1158.65Z" fill="#280B1D"/>
<path d="M871.071 912.4C856.341 907.508 845.463 900.4 846.752 896.506C848.041 892.626 861.011 893.43 875.741 898.321C890.457 903.185 901.335 910.307 900.06 914.187C898.771 918.081 885.787 917.278 871.071 912.4Z" fill="#280B1D"/>
<path d="M863.427 839.637C850.401 831.225 841.643 821.609 843.874 818.172C846.092 814.722 858.452 818.768 871.478 827.193C884.503 835.604 893.247 845.221 891.03 848.657C888.813 852.094 876.438 848.062 863.427 839.637Z" fill="#280B1D"/>
<path d="M937.438 907.633C934.431 904.862 940.5 893.36 951.004 881.942C961.507 870.538 972.468 863.54 975.475 866.311C978.496 869.083 972.413 880.584 961.909 892.002C951.419 903.407 940.459 910.404 937.438 907.633Z" fill="#280B1D"/>
<path d="M957.486 1010.06C954.202 1007.04 958.775 996.734 967.699 987.048C976.609 977.361 986.503 971.957 989.787 974.978C993.057 977.999 988.498 988.309 979.574 997.995C970.65 1007.68 960.77 1013.08 957.486 1010.06Z" fill="#280B1D"/>
<path d="M955.783 1054.12C953.552 1050.25 962.601 1040.87 975.959 1033.18C989.317 1025.47 1001.97 1022.36 1004.19 1026.24C1006.42 1030.09 997.382 1039.47 984.024 1047.17C970.652 1054.88 958.014 1057.98 955.783 1054.12Z" fill="#280B1D"/>
<path d="M941.605 1157.78C939.374 1153.91 946.15 1145.85 956.723 1139.75C967.296 1133.64 977.688 1131.84 979.905 1135.71C982.136 1139.56 975.36 1147.65 964.787 1153.75C954.201 1159.83 943.822 1161.63 941.605 1157.78Z" fill="#280B1D"/>
<path d="M897.693 764.393C893.606 764.088 891.208 751.298 892.358 735.834C893.509 720.369 897.749 708.078 901.837 708.383C905.925 708.688 908.308 721.464 907.158 736.928C906.008 752.406 901.767 764.684 897.693 764.393Z" fill="#280B1D"/>
<path d="M659.839 1187.09C629.104 1127.75 563.671 1081 464.469 1044.83C463.956 1044.6 463.36 1044.57 462.82 1044.75C462.28 1044.93 461.822 1045.3 461.545 1045.8C461.268 1046.3 461.171 1046.88 461.296 1047.44C461.42 1047.99 461.753 1048.48 462.21 1048.81C542.747 1105.64 609.635 1165.5 653.354 1231.06L659.839 1187.09Z" fill="#0CAC84"/>
<path d="M647.383 1072.64C595.46 1028.67 526.993 1009.87 453.204 998.868C452.636 998.785 452.054 998.895 451.555 999.214C451.07 999.533 450.724 1000.02 450.571 1000.59C450.419 1001.14 450.488 1001.75 450.765 1002.25C451.029 1002.78 451.472 1003.16 452.012 1003.37C532.951 1036.75 601.696 1077.42 649.115 1130.66L647.383 1072.64Z" fill="#0CAC84"/>
<path d="M636.514 1001.39C598.116 967.481 517.718 950.396 464.728 944.7C464.16 944.645 463.564 944.811 463.107 945.144C462.636 945.49 462.303 945.989 462.165 946.543C462.04 947.112 462.109 947.707 462.4 948.234C462.677 948.733 463.135 949.135 463.661 949.343C536.66 974.77 595.455 1005.37 636.777 1042.06C637.137 1042.36 637.581 1042.56 638.052 1042.63C638.523 1042.68 639.008 1042.6 639.438 1042.39C639.867 1042.18 640.214 1041.84 640.449 1041.42C640.685 1041.01 640.782 1040.54 640.754 1040.06L637.304 1002.97C637.207 1002.37 636.929 1001.82 636.514 1001.39Z" fill="#0CAC84"/>
<path d="M706.717 888.94C676.924 928.141 659.173 971.195 649.903 1016.76L629.242 977.943C642.877 934.779 669.511 905.762 703.28 884.963C705.664 883.369 708.449 886.543 706.717 888.94Z" fill="#0CAC84"/>
<path d="M791.63 919.273C769.5 952.516 700.368 1060.2 670.035 1125.89L658.242 1062.32C683.143 1001.53 725.269 951.851 788.304 915.822C788.789 915.531 789.357 915.393 789.912 915.462C790.466 915.531 790.992 915.795 791.38 916.183C791.768 916.598 792.004 917.125 792.046 917.693C792.087 918.247 791.949 918.802 791.63 919.273Z" fill="#0CAC84"/>
<path d="M909.78 996.359C824.213 1062.98 748.442 1136.76 680.626 1216.23C680.335 1216.6 679.919 1216.88 679.462 1217C679.005 1217.13 678.52 1217.1 678.063 1216.95C677.605 1216.8 677.231 1216.49 676.94 1216.1C676.677 1215.72 676.525 1215.25 676.525 1214.77L675.471 1158.49C675.458 1158.22 675.499 1157.95 675.582 1157.7C675.679 1157.45 675.818 1157.23 675.998 1157.03C735.597 1080.19 817.714 1031.6 907.396 992.383C907.923 992.119 908.519 992.078 909.073 992.244C909.627 992.41 910.112 992.77 910.417 993.269C910.722 993.768 910.819 994.364 910.694 994.946C910.583 995.5 910.251 996.013 909.78 996.359Z" fill="#0CAC84"/>
<path d="M681.161 1252.16C691.068 1025.86 622.739 919.398 548.438 889.203L544.738 888.801C647.474 986.382 646.587 1167.99 639.049 1252.15C639.049 1252.16 639.049 1252.17 639.049 1252.19C639.063 1252.2 639.063 1252.2 639.077 1252.22C639.077 1252.23 639.091 1252.24 639.105 1252.24C639.118 1252.24 639.132 1252.26 639.146 1252.26H681.064C681.078 1252.26 681.119 1252.24 681.133 1252.23C681.147 1252.2 681.161 1252.17 681.161 1252.16Z" fill="#13E7B1"/>
<path d="M566.721 897.947C564.116 898.473 561.4 898.072 559.058 896.811C556.716 895.563 554.887 893.513 553.876 891.046C542.748 849.724 525.663 810.121 505.528 771.321C505.21 770.684 505.085 769.963 505.196 769.257C505.307 768.55 505.625 767.899 506.124 767.386C506.623 766.873 507.261 766.527 507.967 766.402C508.674 766.277 509.395 766.374 510.032 766.679C520.092 771.183 529.626 776.352 537.718 783.502C538.037 783.793 538.439 783.987 538.868 784.056C539.298 784.111 539.741 784.056 540.143 783.862C540.531 783.682 540.864 783.391 541.099 783.017C541.321 782.656 541.432 782.227 541.418 781.783C541.293 773.303 543.802 765.086 548.042 757.146C548.333 756.605 548.762 756.162 549.289 755.843C549.816 755.524 550.411 755.358 551.021 755.358C551.631 755.358 552.227 755.524 552.753 755.843C553.28 756.162 553.709 756.605 554 757.146C558.116 764.698 561.289 772.25 562.218 780.051C562.259 780.495 562.453 780.91 562.744 781.243C563.035 781.576 563.409 781.825 563.839 781.936C564.268 782.047 564.726 782.033 565.141 781.894C565.557 781.742 565.931 781.465 566.195 781.118C571.737 774.218 578.583 768.453 586.329 764.157C586.925 763.811 587.618 763.645 588.31 763.7C589.003 763.742 589.668 764.005 590.209 764.421C590.749 764.85 591.151 765.446 591.359 766.097C591.567 766.762 591.567 767.483 591.359 768.148C579.4 807.017 574.121 847.632 575.728 888.275C575.465 890.63 574.439 892.861 572.818 894.593C571.197 896.339 569.063 897.503 566.721 897.947Z" fill="#97F3DC"/>
<path d="M484.602 800.324C506.995 833.443 530.691 863.249 557.726 883.771C559.278 885.587 560.317 887.776 560.747 890.132C561.162 892.487 560.941 894.912 560.095 897.143C559.056 899.929 557.13 902.284 554.622 903.864C552.1 905.444 549.148 906.15 546.197 905.887C514.27 894.109 479.572 892.903 443.669 895.162C443.184 895.203 442.699 895.065 442.283 894.801C441.881 894.538 441.562 894.15 441.382 893.693C441.202 893.236 441.174 892.723 441.299 892.266C441.424 891.781 441.701 891.365 442.089 891.06C452.149 882.871 463.706 876.704 476.122 872.921C476.579 872.783 476.981 872.519 477.286 872.145C477.577 871.785 477.771 871.342 477.812 870.857C477.854 870.385 477.743 869.914 477.521 869.499C477.286 869.083 476.939 868.75 476.524 868.542C464.607 862.847 454.935 853.979 446.981 843.115C446.745 842.768 446.593 842.367 446.551 841.965C446.523 841.535 446.62 841.119 446.8 840.745C446.994 840.385 447.285 840.066 447.646 839.858C448.006 839.637 448.422 839.526 448.837 839.526C460.893 839.789 472.408 841.66 483.009 846.69C483.438 846.884 483.91 846.967 484.367 846.898C484.838 846.829 485.268 846.634 485.628 846.316C485.974 846.011 486.238 845.595 486.362 845.152C486.473 844.695 486.459 844.223 486.335 843.78C481.429 830.131 479.974 815.955 480.237 801.516C480.279 801.031 480.473 800.56 480.778 800.186C481.097 799.798 481.526 799.534 481.997 799.396C482.482 799.271 482.981 799.299 483.438 799.465C483.91 799.631 484.311 799.922 484.602 800.324Z" fill="#40F2C5"/>
<path d="M490.769 1252.12C490.783 1252.12 490.81 1252.12 490.81 1252.1C490.838 1252.1 490.838 1252.08 490.852 1252.08C490.866 1252.05 490.866 1252.04 490.866 1252.02C490.866 1252.01 490.852 1251.98 490.838 1251.98C434.689 1176.56 354.998 1124.69 257.846 1089.88C252.151 1087.89 248.049 1095.44 252.816 1099.14C298.502 1135.15 337.164 1173.34 364.739 1215.16C372.651 1227.16 375.104 1230.31 381.09 1242.92C381.09 1242.93 381.104 1242.95 381.118 1242.96C381.118 1242.96 381.146 1242.96 381.16 1242.97L418.892 1252.12C418.906 1252.12 418.92 1252.12 418.92 1252.12H490.769Z" fill="#0CAC84"/>
<path d="M418.907 1252.16C418.907 1252.15 418.907 1252.15 418.893 1252.13C418.893 1252.1 418.893 1252.1 418.879 1252.1C409.747 1243.5 400.089 1235.17 389.363 1228.95C381.215 1224.22 373.026 1219.6 364.739 1215.16C340.656 1202.3 315.769 1191.22 288.969 1185.09C251.084 1176.36 201.545 1166.69 161.152 1175.96C154.127 1177.55 154.528 1187.75 161.679 1188.82C168.441 1189.86 175.328 1190.4 182.076 1191.19C224.728 1195.96 267.643 1208.01 303.145 1232.79C312.526 1239.27 321.672 1245.36 330.263 1252.23C330.291 1252.24 330.305 1252.26 330.332 1252.26H418.81C418.823 1252.26 418.851 1252.24 418.879 1252.23C418.893 1252.2 418.907 1252.19 418.907 1252.16Z" fill="#0BE0AA"/>
<path d="M973.228 1112.98L938.64 1076.43C938.405 1076.18 938.114 1075.97 937.795 1075.84C937.463 1075.7 937.116 1075.64 936.77 1075.65C936.409 1075.66 936.077 1075.75 935.758 1075.91C935.439 1076.06 935.162 1076.29 934.941 1076.56L932.169 1080C931.781 1080.51 931.601 1081.14 931.643 1081.77C931.698 1082.41 931.975 1083.01 932.432 1083.44L969.112 1116.96C969.472 1117.26 969.902 1117.47 970.387 1117.55C970.858 1117.62 971.329 1117.55 971.773 1117.36L972.424 1117.1C972.798 1116.92 973.117 1116.65 973.352 1116.33C973.616 1116.01 973.782 1115.64 973.851 1115.24C973.934 1114.84 973.92 1114.44 973.81 1114.03C973.685 1113.65 973.491 1113.28 973.228 1112.98Z" fill="#0B5D48"/>
<path d="M980.85 1127.95C980.863 1127.95 980.877 1127.95 980.891 1127.93C980.919 1127.93 980.919 1127.92 980.933 1127.92C988.596 1119.33 1011.96 1096.48 1012.29 1096.17V1096.16C1012.91 1095.41 1013.7 1094.81 1014.61 1094.43C1015.51 1094.05 1016.49 1093.89 1017.46 1093.97C1018.43 1094.04 1019.37 1094.36 1020.2 1094.87C1021.02 1095.38 1021.71 1096.1 1022.21 1096.93C1022.21 1096.95 1022.23 1096.96 1022.23 1096.98C1022.37 1098.18 1028.49 1155.26 1019.7 1158.28L996.148 1167.69H996.134C995.871 1167.81 995.607 1167.81 995.344 1167.95C995.095 1168.09 994.831 1168.19 994.568 1168.21C994.554 1168.21 994.54 1168.21 994.54 1168.21L970.457 1176.28L970.429 1176.29C964.526 1179.27 930.022 1132.05 929.274 1131.01C929.26 1130.99 929.246 1130.98 929.246 1130.97C929.094 1130 929.163 1129 929.468 1128.06C929.773 1127.13 930.285 1126.27 930.992 1125.58C931.699 1124.87 932.544 1124.36 933.486 1124.05C934.429 1123.75 935.426 1123.68 936.396 1123.84H936.41C936.909 1124 969.445 1126.37 980.85 1127.95Z" fill="#97F3DC"/>
<path d="M988.459 1149.8C988.916 1149.66 989.388 1149.6 989.873 1149.65C990.344 1149.7 990.815 1149.83 991.231 1150.06L1024.21 1170.2C1024.7 1170.49 1025.1 1170.89 1025.37 1171.37C1025.65 1171.87 1025.79 1172.43 1025.79 1172.98V1191.12C1025.79 1191.76 1025.6 1192.37 1025.26 1192.89C1024.9 1193.41 1024.42 1193.81 1023.85 1194.07C1023.28 1194.32 1022.64 1194.4 1022.03 1194.31C1021.41 1194.21 1020.83 1193.93 1020.37 1193.52C1020.22 1193.38 1006.03 1180.09 996.275 1171C996.261 1170.99 996.247 1170.99 996.219 1170.97C996.205 1170.97 996.191 1170.97 996.178 1170.99C996.15 1170.99 996.15 1170.99 996.122 1171.01C996.122 1171.01 996.122 1171.04 996.108 1171.05C994.529 1184.39 992.048 1203.72 992.034 1203.84C991.951 1204.48 991.688 1205.06 991.286 1205.53C990.87 1206.02 990.33 1206.36 989.734 1206.54C989.138 1206.72 988.487 1206.72 987.891 1206.56C987.295 1206.38 986.741 1206.04 986.339 1205.56L974.81 1191.66C974.464 1191.24 974.242 1190.75 974.145 1190.21C974.048 1189.66 974.103 1189.12 974.283 1188.61L986.588 1151.93V1151.92C986.685 1151.43 986.907 1150.98 987.24 1150.62C987.572 1150.24 987.988 1149.96 988.459 1149.8Z" fill="#40F2C5"/>
<path d="M998.923 1179.87C1000.63 1179.26 1002.03 1178 1002.82 1176.36C1003.61 1174.73 1003.72 1172.86 1003.16 1171.12L984.484 1119.47C983.874 1117.79 982.627 1116.43 981.019 1115.65C979.412 1114.89 977.555 1114.78 975.864 1115.36H975.726C974.049 1116.01 972.705 1117.29 971.929 1118.91C971.167 1120.55 971.056 1122.4 971.624 1124.11L990.303 1175.77C990.594 1176.61 991.052 1177.37 991.634 1178.04C992.23 1178.7 992.95 1179.24 993.754 1179.63C994.544 1180.01 995.417 1180.23 996.304 1180.27C997.19 1180.31 998.077 1180.17 998.923 1179.87Z" fill="#0B5D48"/>
<path d="M966.193 1161.17L973.08 1155.62C973.662 1155.12 974.41 1154.83 975.172 1154.8C975.948 1154.77 976.696 1155.02 977.306 1155.48C977.902 1155.94 978.345 1156.56 978.553 1157.27C978.775 1157.99 978.761 1158.75 978.512 1159.46L975.602 1167.13C975.338 1167.87 974.812 1168.48 974.133 1168.85L972.678 1169.78C971.971 1170.2 971.154 1170.32 970.35 1170.18C969.546 1170.03 968.826 1169.61 968.313 1168.99L965.791 1166.08C965.472 1165.75 965.237 1165.35 965.07 1164.9C964.918 1164.47 964.862 1164 964.904 1163.54C964.932 1163.07 965.07 1162.63 965.292 1162.23C965.514 1161.81 965.819 1161.45 966.193 1161.17Z" fill="#62F5D1"/>
<path d="M1012.94 1144.89L1004.2 1145.95C1003.42 1146.04 1002.7 1146.39 1002.16 1146.94C1001.61 1147.5 1001.25 1148.22 1001.15 1148.99C1001.1 1149.72 1001.25 1150.45 1001.61 1151.07C1001.96 1151.71 1002.5 1152.22 1003.15 1152.56L1010.7 1155.88C1011.45 1156.19 1012.29 1156.24 1013.08 1156.02L1014.8 1155.49C1015.59 1155.26 1016.27 1154.76 1016.73 1154.09C1017.18 1153.41 1017.41 1152.6 1017.31 1151.78L1016.92 1147.94C1016.87 1147.47 1016.71 1147.03 1016.49 1146.61C1016.26 1146.21 1015.95 1145.85 1015.58 1145.57C1015.2 1145.28 1014.79 1145.07 1014.33 1144.96C1013.89 1144.84 1013.4 1144.81 1012.94 1144.89Z" fill="#62F5D1"/>
<path d="M1003.8 1114.3L997.176 1119.85C996.137 1120.74 995.361 1121.92 994.945 1123.22C994.515 1124.54 994.474 1125.94 994.806 1127.27L997.315 1136.68C997.772 1138.42 998.867 1139.95 1000.39 1140.92C1001.92 1141.9 1003.74 1142.27 1005.53 1141.97L1010.56 1141.04C1012.31 1140.72 1013.86 1139.78 1014.95 1138.39C1016.06 1136.99 1016.62 1135.26 1016.52 1133.5L1015.59 1119.47C1015.54 1118.12 1015.09 1116.83 1014.33 1115.72C1013.57 1114.63 1012.52 1113.76 1011.3 1113.22C1010.08 1112.69 1008.72 1112.5 1007.4 1112.69C1006.07 1112.88 1004.83 1113.44 1003.8 1114.3Z" fill="#40F2C5"/>
<path d="M951.611 1131.63L965.136 1132.03C965.926 1132.03 966.716 1132.28 967.353 1132.75C968.004 1133.24 968.475 1133.92 968.697 1134.69L972.674 1146.08C973.007 1147.14 972.951 1148.29 972.508 1149.3C972.078 1150.32 971.288 1151.14 970.291 1151.64L962.337 1155.76C961.45 1156.24 960.383 1156.39 959.371 1156.14C958.36 1155.91 957.487 1155.29 956.905 1154.43L947.371 1138.53C945.528 1135.62 948.036 1131.63 951.611 1131.63Z" fill="#40F2C5"/>
<path d="M980.889 1113.65L982.884 1063.32C982.898 1062.97 982.829 1062.62 982.69 1062.32C982.566 1061.99 982.372 1061.71 982.108 1061.46C981.873 1061.24 981.568 1061.04 981.249 1060.93C980.917 1060.82 980.584 1060.77 980.238 1060.79L975.859 1061.2C975.235 1061.25 974.667 1061.54 974.237 1062.01C973.822 1062.49 973.6 1063.08 973.614 1063.7L975.332 1113.38C975.36 1113.87 975.526 1114.34 975.803 1114.74C976.08 1115.13 976.482 1115.45 976.926 1115.63L977.591 1115.9C977.951 1116.04 978.353 1116.07 978.741 1116.04C979.129 1115.99 979.503 1115.85 979.822 1115.63C980.141 1115.41 980.418 1115.11 980.598 1114.77C980.792 1114.42 980.889 1114.03 980.889 1113.65Z" fill="#0B5D48"/>
<path d="M975.819 1132.37C969.639 1131.17 965.607 1125.16 966.799 1118.91C967.99 1112.65 973.976 1108.55 980.157 1109.72C986.323 1110.92 990.369 1116.93 989.178 1123.18C987.972 1129.43 982 1133.54 975.819 1132.37Z" fill="#6A6A6A"/>
<path d="M1454.28 1252.2C1454.25 1252.2 1454.25 1252.2 1454.24 1252.19C1454.22 1252.19 1454.21 1252.17 1454.21 1252.17C1454.19 1252.16 1454.19 1252.15 1454.19 1252.13C1454.19 1252.13 1454.19 1252.12 1454.19 1252.1C1456.63 1237.14 1459.7 1215.85 1461.33 1194.92C1461.33 1194.9 1461.33 1194.89 1461.32 1194.88C1457.7 1188.53 1449.22 1179.78 1429.45 1177.14C1429.11 1177.08 1428.79 1176.97 1428.49 1176.81C1428.2 1176.64 1427.93 1176.4 1427.73 1176.14C1427.52 1175.86 1427.37 1175.56 1427.28 1175.23C1427.2 1174.89 1427.17 1174.55 1427.21 1174.21C1427.27 1173.87 1427.37 1173.54 1427.55 1173.26C1427.71 1172.95 1427.95 1172.69 1428.21 1172.48C1428.49 1172.27 1428.81 1172.12 1429.13 1172.04C1429.46 1171.96 1429.81 1171.93 1430.15 1171.98C1446.74 1174.2 1456.27 1180.41 1461.77 1186.55C1461.77 1186.55 1461.79 1186.56 1461.8 1186.56C1461.83 1186.56 1461.84 1186.56 1461.84 1186.56C1461.87 1186.56 1461.88 1186.55 1461.88 1186.53C1461.9 1186.52 1461.9 1186.51 1461.9 1186.48C1462.67 1173.52 1462.76 1161.05 1461.68 1150.73C1457.2 1108.12 1444.74 1069.55 1444.6 1069.16C1444.38 1068.44 1444.29 1067.7 1444.34 1066.95C1444.4 1066.2 1444.6 1065.46 1444.95 1064.8C1445.3 1064.13 1445.76 1063.54 1446.34 1063.04C1446.91 1062.55 1447.56 1062.18 1448.28 1061.94C1449 1061.71 1449.75 1061.63 1450.49 1061.68C1451.24 1061.74 1451.98 1061.94 1452.64 1062.29C1453.32 1062.62 1453.92 1063.09 1454.4 1063.66C1454.89 1064.25 1455.27 1064.9 1455.5 1065.62C1456.02 1067.22 1468.47 1105.68 1473.07 1149.54C1473.54 1154.09 1473.82 1159.04 1473.9 1164.22C1473.9 1164.24 1473.91 1164.24 1473.91 1164.27C1473.93 1164.28 1473.93 1164.28 1473.94 1164.29C1473.95 1164.29 1473.97 1164.29 1473.98 1164.29C1474.01 1164.29 1474.01 1164.29 1474.02 1164.28C1480.12 1160 1488.41 1155.58 1499.66 1151.27C1500.31 1151.02 1501.02 1151.05 1501.65 1151.32C1502.29 1151.6 1502.78 1152.13 1503.03 1152.78C1503.28 1153.42 1503.25 1154.14 1502.97 1154.76C1502.69 1155.4 1502.17 1155.88 1501.53 1156.13C1488.43 1161.13 1479.73 1166.19 1473.95 1170.82C1473.94 1170.82 1473.94 1170.83 1473.93 1170.85C1473.93 1170.86 1473.93 1170.87 1473.93 1170.87C1473.68 1198.38 1469.24 1230.89 1465.82 1252.13C1465.82 1252.15 1465.81 1252.16 1465.79 1252.17C1465.78 1252.19 1465.75 1252.2 1465.74 1252.2H1454.28Z" fill="#04051F"/>
<path d="M1437 1175.79C1436.99 1175.81 1436.97 1175.82 1436.97 1175.84C1436.96 1175.85 1436.96 1175.86 1436.96 1175.88C1437.22 1177.01 1440.87 1194.7 1422.31 1204.4C1405.08 1213.39 1378.91 1207.44 1363.99 1177.62C1351.92 1153.54 1345.06 1126.55 1344.62 1124.77C1344.62 1124.76 1344.62 1124.74 1344.62 1124.74C1344.62 1124.72 1344.63 1124.72 1344.63 1124.7C1344.64 1124.7 1344.66 1124.69 1344.66 1124.68C1344.67 1124.68 1344.69 1124.68 1344.69 1124.68C1347.31 1124.47 1402.79 1120.32 1421.47 1128.47C1433.66 1133.79 1449.69 1145.88 1446.49 1161.3C1444.43 1171.21 1437.67 1175.41 1437 1175.79Z" fill="#49223A"/>
<path d="M1592.21 1142.84C1592.22 1142.83 1592.22 1142.83 1592.24 1142.81C1592.24 1142.8 1592.24 1142.79 1592.24 1142.79C1592.24 1142.77 1592.24 1142.76 1592.22 1142.75C1592.21 1142.75 1592.21 1142.73 1592.21 1142.73C1578.74 1131.71 1553.08 1113.33 1527.6 1110.68C1506.78 1108.52 1489.07 1121.2 1483.52 1135.23C1477.97 1149.24 1486.19 1180.89 1508.44 1187.92C1544.22 1199.23 1590.45 1144.95 1592.21 1142.84Z" fill="#49223A"/>
<path d="M1450.14 1035.48C1443.72 1035.48 1438.51 1019.07 1438.51 998.84C1438.51 978.595 1443.72 962.188 1450.14 962.188C1456.55 962.188 1461.76 978.595 1461.76 998.84C1461.76 1019.07 1456.55 1035.48 1450.14 1035.48Z" fill="#40F2C5"/>
<path d="M1421.77 1005.16C1415.52 985.925 1415.41 968.715 1421.51 966.719C1427.62 964.738 1437.63 978.747 1443.89 997.995C1450.14 1017.23 1450.25 1034.44 1444.15 1036.42C1438.04 1038.42 1428.02 1024.42 1421.77 1005.16Z" fill="#76FEDC"/>
<path d="M1397.98 1031.32C1381.6 1019.42 1371.4 1005.56 1375.18 1000.36C1378.95 995.168 1395.28 1000.61 1411.64 1012.52C1428.02 1024.42 1438.22 1038.28 1434.45 1043.47C1430.67 1048.66 1414.34 1043.22 1397.98 1031.32Z" fill="#76FEDC"/>
<path d="M1393.24 1048.57C1373.99 1042.3 1360 1032.26 1361.99 1026.17C1363.98 1020.06 1381.2 1020.18 1400.45 1026.46C1419.68 1032.73 1433.68 1042.77 1431.7 1048.88C1429.7 1054.97 1412.48 1054.85 1393.24 1048.57Z" fill="#40F2C5"/>
<path d="M1394.1 1066.46C1373.85 1066.46 1357.45 1061.27 1357.45 1054.84C1357.45 1048.42 1373.85 1043.21 1394.1 1043.21C1414.33 1043.21 1430.74 1048.42 1430.74 1054.84C1430.74 1061.27 1414.33 1066.46 1394.1 1066.46Z" fill="#76FEDC"/>
<path d="M1375.07 1109.28C1371.31 1104.08 1381.53 1090.23 1397.92 1078.35C1414.32 1066.48 1430.66 1061.06 1434.42 1066.25C1438.19 1071.46 1427.97 1085.31 1411.57 1097.18C1395.18 1109.07 1378.84 1114.48 1375.07 1109.28Z" fill="#76FEDC"/>
<path d="M1395.59 1129.8C1390.39 1126.02 1395.84 1109.7 1407.75 1093.33C1419.67 1076.98 1433.53 1066.78 1438.72 1070.56C1443.91 1074.35 1438.46 1090.67 1426.54 1107.02C1414.63 1123.37 1400.77 1133.59 1395.59 1129.8Z" fill="#40F2C5"/>
<path d="M1421.4 1143.01C1415.29 1141.03 1415.42 1123.82 1421.7 1104.57C1427.97 1085.32 1438.01 1071.34 1444.11 1073.34C1450.22 1075.32 1450.08 1092.53 1443.8 1111.77C1437.54 1131.02 1427.51 1145 1421.4 1143.01Z" fill="#76FEDC"/>
<path d="M1456.3 1111.77C1450.08 1092.53 1450 1075.32 1456.09 1073.34C1462.21 1071.37 1472.21 1085.38 1478.43 1104.62C1484.65 1123.89 1484.75 1141.1 1478.64 1143.08C1472.53 1145.05 1462.54 1131.04 1456.3 1111.77Z" fill="#76FEDC"/>
<path d="M1488.58 1097.31C1472.23 1085.39 1462.03 1071.52 1465.81 1066.34C1469.59 1061.14 1485.92 1066.6 1502.27 1078.52C1518.62 1090.43 1528.81 1104.31 1525.02 1109.5C1521.24 1114.68 1504.92 1109.23 1488.58 1097.31Z" fill="#76FEDC"/>
<path d="M1506.16 1066.61C1485.91 1066.59 1469.52 1061.35 1469.54 1054.92C1469.55 1048.5 1485.97 1043.33 1506.2 1043.38C1526.45 1043.42 1542.84 1048.66 1542.82 1055.07C1542.81 1061.5 1526.39 1066.67 1506.16 1066.61Z" fill="#76FEDC"/>
<path d="M1465.85 1043.51C1462.1 1038.32 1472.35 1024.48 1488.74 1012.63C1505.15 1000.78 1521.49 995.376 1525.26 1000.59C1529.01 1005.78 1518.77 1019.61 1502.37 1031.47C1485.97 1043.32 1469.62 1048.71 1465.85 1043.51Z" fill="#76FEDC"/>
<path d="M1461.55 1039.25C1456.37 1035.46 1461.84 1019.13 1473.79 1002.78C1485.72 986.424 1499.6 976.253 1504.8 980.036C1509.98 983.819 1504.51 1000.14 1492.56 1016.49C1480.63 1032.86 1466.75 1043.03 1461.55 1039.25Z" fill="#40F2C5"/>
<path d="M1456.18 1036.43C1450.08 1034.44 1450.25 1017.23 1456.55 998.009C1462.86 978.775 1472.92 964.807 1479.01 966.816C1485.11 968.812 1484.96 986.022 1478.64 1005.24C1472.33 1024.48 1462.29 1038.44 1456.18 1036.43Z" fill="#76FEDC"/>
<path d="M1361.96 1083.45C1359.98 1077.34 1373.99 1067.34 1393.24 1061.1C1412.49 1054.85 1429.7 1054.75 1431.68 1060.86C1433.66 1066.96 1419.65 1076.98 1400.4 1083.2C1381.16 1089.45 1363.95 1089.55 1361.96 1083.45Z" fill="#40F2C5"/>
<path d="M1450.04 1147.57C1443.61 1147.55 1438.43 1131.15 1438.46 1110.92C1438.47 1090.68 1443.7 1074.28 1450.11 1074.29C1456.54 1074.29 1461.72 1090.7 1461.7 1110.93C1461.68 1131.17 1456.46 1147.58 1450.04 1147.57Z" fill="#40F2C5"/>
<path d="M1473.58 1107.09C1461.72 1090.7 1456.32 1074.36 1461.52 1070.59C1466.73 1066.84 1480.55 1077.06 1492.42 1093.46C1504.28 1109.85 1509.7 1126.19 1504.5 1129.96C1499.29 1133.71 1485.46 1123.48 1473.58 1107.09Z" fill="#40F2C5"/>
<path d="M1499.79 1083.35C1480.55 1077.06 1466.58 1067.02 1468.58 1060.91C1470.58 1054.81 1487.79 1054.96 1507.02 1061.25C1526.25 1067.54 1540.22 1077.59 1538.23 1083.7C1536.23 1089.8 1519.02 1089.65 1499.79 1083.35Z" fill="#40F2C5"/>
<path d="M1468.59 1048.92C1466.63 1042.82 1480.65 1032.83 1499.91 1026.62C1519.16 1020.4 1536.38 1020.33 1538.35 1026.43C1540.32 1032.54 1526.29 1042.53 1507.05 1048.75C1487.79 1054.96 1470.58 1055.04 1468.59 1048.92Z" fill="#40F2C5"/>
<path d="M1407.79 1016.38C1395.89 1000 1390.45 983.666 1395.65 979.897C1400.85 976.128 1414.69 986.341 1426.61 1002.71C1438.5 1019.08 1443.94 1035.41 1438.75 1039.18C1433.55 1042.96 1419.68 1032.75 1407.79 1016.38Z" fill="#40F2C5"/>
<path d="M1450.14 1099.62C1425.43 1099.62 1405.39 1079.58 1405.39 1054.88C1405.39 1030.17 1425.43 1010.15 1450.14 1010.15C1474.85 1010.15 1494.87 1030.17 1494.87 1054.88C1494.87 1079.58 1474.85 1099.62 1450.14 1099.62Z" fill="#4A4A4A"/>
<path d="M1449.97 1086.07C1456.11 1086.07 1462.13 1084.25 1467.24 1080.83C1472.35 1077.42 1476.33 1072.56 1478.69 1066.89C1481.04 1061.21 1481.65 1054.96 1480.45 1048.93C1479.25 1042.91 1476.29 1037.38 1471.95 1033.03C1467.6 1028.67 1462.06 1025.72 1456.04 1024.52C1450.02 1023.33 1443.77 1023.93 1438.08 1026.29C1432.4 1028.63 1427.55 1032.62 1424.13 1037.74C1420.72 1042.85 1418.91 1048.85 1418.91 1055C1418.92 1063.23 1422.19 1071.13 1428.01 1076.95C1433.83 1082.79 1441.74 1086.07 1449.97 1086.07ZM1449.97 1035.71C1453.8 1035.71 1457.51 1036.84 1460.7 1038.96C1463.86 1041.08 1466.34 1044.08 1467.79 1047.62C1469.25 1051.14 1469.64 1055.02 1468.89 1058.76C1468.15 1062.5 1466.33 1065.94 1463.62 1068.64C1460.92 1071.34 1457.48 1073.18 1453.74 1073.92C1450 1074.67 1446.12 1074.28 1442.6 1072.82C1439.07 1071.35 1436.06 1068.89 1433.93 1065.71C1431.82 1062.54 1430.68 1058.81 1430.68 1055C1430.7 1049.88 1432.72 1044.98 1436.34 1041.37C1439.96 1037.75 1444.86 1035.71 1449.97 1035.71Z" fill="#8B3C6C"/>
</svg>
